<svg xmlns="http://www.w3.org/2000/svg" width="368" height="64" viewBox="0 0 368 64" version="1.1"><path d="M 33.814 19.472 L 33.402 23 46.578 23 C 57.381 23, 59.992 22.715, 61.070 21.416 C 62.022 20.268, 62.095 19.374, 61.335 18.166 C 60.459 16.776, 58.130 16.454, 47.256 16.222 L 34.225 15.944 33.814 19.472 M 47 34 L 47 37 57.417 37 C 68.260 37, 69.711 36.408, 67.830 32.750 C 67.064 31.261, 65.446 31, 56.965 31 L 47 31 47 34 M 34 49 L 34 52.056 47.750 51.778 L 61.500 51.500 61.500 49 L 61.500 46.500 47.750 46.222 L 34 45.944 34 49" stroke="none" fill="#d07984" fill-rule="evenodd"/><path d="M 107 32.500 L 107 52 109.500 52 L 112 52 112 42.689 C 112 34.813, 112.303 33.052, 113.966 31.267 C 116.718 28.313, 119.507 27.655, 122.734 29.198 C 125.441 30.492, 125.511 30.742, 126 41.010 L 126.500 51.500 129 51.500 L 131.500 51.500 131.786 41.770 C 132.114 30.604, 130.886 27.027, 125.828 24.411 C 122.152 22.510, 116.698 23.058, 113.876 25.612 C 112.058 27.258, 112 27.089, 112 20.155 C 112 13.190, 111.934 13, 109.500 13 L 107 13 107 32.500 M 258.384 14.442 C 257.319 17.217, 258.456 19.500, 260.905 19.500 C 264.059 19.500, 265.846 16.724, 264.070 14.584 C 262.428 12.606, 259.120 12.523, 258.384 14.442 M 22.250 16.662 C 21.563 16.940, 21 18.246, 21 19.564 C 21 22.349, 23.550 23.314, 29.595 22.820 C 33.191 22.525, 33.525 22.243, 33.813 19.250 L 34.127 16 28.813 16.079 C 25.891 16.122, 22.938 16.385, 22.250 16.662 M 88.750 17.082 C 87.709 17.687, 87 19.294, 87 21.050 C 87 23.530, 86.602 24, 84.500 24 C 82.500 24, 82 24.500, 82 26.500 C 82 28.500, 82.500 29, 84.500 29 C 86.945 29, 87 29.165, 87 36.532 C 87 48.820, 89.719 52.732, 97.629 51.828 C 99.724 51.589, 100.500 50.959, 100.500 49.500 C 100.500 47.976, 99.667 47.381, 97 47 L 93.500 46.500 93.211 37.750 L 92.922 29 96.461 29 C 99.569 29, 100 28.696, 100 26.500 C 100 24.318, 99.563 24, 96.560 24 C 93.322 24, 93.103 23.786, 92.810 20.327 C 92.472 16.328, 91.451 15.512, 88.750 17.082 M 277.750 16.689 C 276.513 17.013, 276 18.151, 276 20.573 C 276 23.731, 275.759 24, 272.930 24 C 270.319 24, 269.909 24.336, 270.180 26.250 C 270.409 27.861, 271.281 28.590, 273.250 28.816 L 276 29.133 276 38.378 C 276 49.772, 277.408 52, 284.609 52 C 288.735 52, 289.111 51.799, 288.820 49.750 C 288.601 48.214, 287.707 47.398, 286 47.179 C 282.092 46.678, 281 44.317, 281 36.369 L 281 29.121 284.750 28.810 C 287.730 28.564, 288.500 28.089, 288.500 26.500 C 288.500 24.911, 287.730 24.436, 284.750 24.190 C 281.104 23.888, 281 23.770, 281 19.940 C 281 17.773, 280.663 16.052, 280.250 16.116 C 279.837 16.180, 278.712 16.438, 277.750 16.689 M 147.250 24.965 C 144.609 26.595, 144 26.692, 144 25.485 C 144 24.563, 143.041 24, 141.472 24 L 138.944 24 139.222 37.750 C 139.489 50.960, 139.584 51.512, 141.652 51.807 C 143.703 52.099, 143.819 51.674, 144.152 42.660 C 144.548 31.899, 145.701 29.742, 151.833 28.292 C 154.515 27.658, 155.500 26.898, 155.500 25.462 C 155.500 22.710, 151.313 22.457, 147.250 24.965 M 164.761 25.062 C 160.536 27.293, 157 33.192, 157 38.010 C 157 42.039, 159.170 46.124, 163.041 49.381 C 165.600 51.534, 167.162 51.999, 171.827 51.996 C 177.986 51.992, 184 49.269, 184 46.483 C 184 44.160, 181.383 43.618, 178.824 45.411 C 175.239 47.922, 168.388 47.479, 165.455 44.545 C 164.105 43.195, 163 41.635, 163 41.078 C 163 40.471, 167.509 39.952, 174.250 39.783 L 185.500 39.500 185.818 36.184 C 186.417 29.949, 178.649 22.927, 171.282 23.044 C 169.752 23.069, 166.817 23.977, 164.761 25.062 M 199.450 24.407 C 187.785 29.488, 187.335 45.030, 198.684 50.875 C 204.249 53.741, 217 50.683, 217 46.483 C 217 44.160, 214.383 43.618, 211.824 45.411 C 208.154 47.981, 201.745 47.472, 198.636 44.364 C 197.186 42.914, 196 41.339, 196 40.864 C 196 40.389, 201.175 40, 207.500 40 L 219 40 219 36.450 C 219 31.345, 216.542 27.317, 212.019 25.010 C 207.485 22.697, 203.784 22.519, 199.450 24.407 M 236 23.659 C 235.175 23.990, 233.713 24.947, 232.750 25.785 C 231.174 27.158, 231 27.145, 231 25.655 C 231 24.556, 230.160 24, 228.500 24 L 226 24 226 38 L 226 52 228.500 52 L 231 52 231 42.923 C 231 34.154, 231.103 33.744, 234.025 30.821 C 236.466 28.380, 237.577 27.925, 239.775 28.464 C 244.763 29.686, 245.473 31.279, 245.845 42.091 C 246.176 51.694, 246.281 52.101, 248.345 51.807 C 250.405 51.513, 250.500 51.007, 250.500 40.270 C 250.500 29.512, 250.391 28.931, 247.903 26.445 C 245.298 23.844, 239.135 22.401, 236 23.659 M 300.015 24.752 C 296.080 26.726, 292.041 33.052, 292.016 37.282 C 291.992 41.485, 294.356 46.281, 297.941 49.297 C 301.697 52.457, 308.231 52.966, 313.050 50.474 C 315.694 49.107, 316 49.107, 316 50.474 C 316 51.432, 316.924 52, 318.481 52 C 321.764 52, 322.147 50.149, 321.790 36 L 321.500 24.500 318.750 24.184 C 316.862 23.966, 316 24.325, 316 25.326 C 316 26.526, 315.343 26.449, 312.289 24.892 C 307.676 22.541, 304.495 22.504, 300.015 24.752 M 329.923 25.923 C 326.758 29.089, 326.368 30.927, 328.146 34.316 C 329.556 37.003, 331.225 38.075, 337 40 C 340.733 41.244, 341.500 41.926, 341.500 44 C 341.500 46.176, 341.004 46.541, 337.674 46.815 C 335.429 47, 332.883 46.498, 331.515 45.602 C 329.416 44.227, 329.053 44.232, 327.874 45.652 C 326.760 46.994, 326.979 47.585, 329.338 49.615 C 331.502 51.476, 333.269 52, 337.381 52 C 343.918 52, 347 49.349, 347 43.725 C 347 39.180, 344.424 36.596, 338.375 35.073 C 333.588 33.867, 332.030 31.874, 334.011 29.487 C 335.724 27.422, 338.355 27.630, 340.500 30 C 342.273 31.959, 345.049 32.617, 346.293 31.373 C 347.443 30.224, 343.939 24.927, 341.387 23.957 C 336.738 22.190, 333.019 22.828, 329.923 25.923 M 258.436 25.305 C 258.161 26.023, 258.062 32.211, 258.218 39.055 L 258.500 51.500 261 51.500 L 263.500 51.500 263.778 37.750 L 264.056 24 261.497 24 C 260.089 24, 258.712 24.587, 258.436 25.305 M 168.108 29.224 C 166.792 29.926, 165.050 31.512, 164.236 32.750 L 162.756 35 171.378 35 C 176.120 35, 180 34.600, 180 34.111 C 180 32.157, 176.330 28.976, 173.500 28.477 C 171.850 28.186, 169.424 28.522, 168.108 29.224 M 201.108 29.265 C 199.792 29.944, 198.050 31.512, 197.236 32.750 L 195.756 35 204.378 35 C 213.919 35, 215.244 33.910, 210.365 30.073 C 207.372 27.718, 204.576 27.474, 201.108 29.265 M 303.020 29.284 C 297.697 31.978, 296.517 39.084, 300.589 43.923 C 302.648 46.371, 303.960 47, 307 47 C 310.040 47, 311.352 46.371, 313.411 43.923 C 314.835 42.231, 316 39.734, 316 38.374 C 316 34.727, 313.513 30.555, 310.528 29.195 C 307.248 27.700, 306.124 27.714, 303.020 29.284 M 37.362 32.500 C 36.180 35.580, 37.791 37, 42.469 37 C 46.837 37, 47 36.892, 47 34 C 47 31.108, 46.837 31, 42.469 31 C 39.363 31, 37.756 31.472, 37.362 32.500 M 21.362 47.500 C 20.073 50.859, 21.748 52, 27.969 52 L 34 52 34 49 L 34 46 27.969 46 C 23.530 46, 21.785 46.396, 21.362 47.500" stroke="none" fill="#5c6b8b" fill-rule="evenodd"/></svg>