<svg xmlns="http://www.w3.org/2000/svg" xmlns:xlink="http://www.w3.org/1999/xlink" version="1.1" id="Layer_1" x="0px" y="0px" width="762.506px" height="117.679px" viewBox="0 0 762.506 117.679" enable-background="new 0 0 762.506 117.679" xml:space="preserve">

<g>

	<path fill="#FFFFFF" d="M304.277,43.069c-20.436,0-35.322,14.24-35.322,35.527c0,21.277,15.645,35.507,38.267,35.507    c6.607,0,12.793-1.149,18.056-3.345l9.644-16.076l-1.282-0.688c-8.29,4.339-17.009,6.576-24.889,6.576    c-11.665,0-21.749-5.93-22.888-16.066h51.583v-4.647C337.444,56.314,323.164,43.069,304.277,43.069z M285.862,71.826    c1.272-9.736,7.468-16.065,17.481-16.065c10.577,0,17.061,6.196,17.194,16.065H285.862z M655.668,43.069    c-20.457,0-35.332,14.24-35.332,35.527c0,21.277,15.655,35.507,38.276,35.507c6.597,0,12.782-1.149,18.035-3.345l9.654-16.076    l-1.272-0.688c-8.289,4.339-17.02,6.576-24.909,6.576c-11.654,0-21.729-5.93-22.867-16.066h51.572    C691.072,57.997,676.822,43.069,655.668,43.069z M637.253,71.826c1.251-9.736,7.469-16.065,17.461-16.065    c10.577,0,17.071,6.196,17.204,16.065H637.253z M419.319,43.069c-20.426,0-35.309,14.24-35.309,35.527    c0,21.277,15.643,35.507,38.253,35.507c6.627,0,12.804-1.149,18.076-3.345l9.623-16.076l-1.282-0.688    c-8.279,4.339-16.999,6.576-24.878,6.576c-11.665,0-21.75-5.93-22.878-16.066h51.583C454.744,57.997,440.494,43.069,419.319,43.069    z M400.925,71.826c1.262-9.736,7.469-16.065,17.461-16.065c10.577,0,17.071,6.196,17.204,16.065H400.925z M69.867,59.843v-0.288    C80.157,56.458,87.195,49,87.195,37.714c0-18.179-15.512-25.083-30.562-25.083H20.162v-0.01H5.646v1.488l5.119,4.35    c6.146,5.007,6.945,5.981,6.945,10.505v83.458h35.958c18.867,0,37.764-6.771,37.764-28.479    C91.432,71.128,82.394,61.249,69.867,59.843z M35.479,27.855h14.65c9.91,0,12.978,1.364,15.983,4.216    c2.278,2.165,3.324,5.14,3.334,8.607c0,3.221-1.108,6.104-3.458,8.341c-2.934,2.811-6.956,4.196-14.312,4.196H35.479V27.855z     M51.822,97.196H35.479V68.44h17.05c14.373,0,21.144,3.662,21.144,14.096C73.673,95.647,60.973,97.196,51.822,97.196z     M125.01,21.792c0,5.776-4.801,10.146-10.998,10.146c-6.207,0-10.71-4.801-10.71-10.146c0-5.366,4.503-10.157,10.71-10.157    C120.208,11.636,125.01,16.006,125.01,21.792z M96.592,44.772h26.017v67.648h-16.928V59.197h-0.01    c0-5.601-0.308-6.494-6.381-11.182l-2.698-2.134V44.772z M231.232,9.687l5.293,3.417c4.832,3.067,5.561,4.544,5.561,8.843v31.413    h-0.421c-3.519-4.36-10.29-10.29-22.97-10.29c-19.318,0-32.706,15.502-32.706,35.527c0,20.005,12.557,35.507,33.414,35.507    c9.438,0,18.323-3.663,23.257-11.829h0.277l1.774,10.146h14.291V8.445h-27.771V9.687z M222.779,98.889    c-12.403,0-19.882-9.726-19.882-20.292c0-10.577,7.479-20.303,19.882-20.303c12.414,0,19.882,9.726,19.882,20.303    C242.661,89.164,235.192,98.889,222.779,98.889z M582.049,9.687l2.35,1.57c8.155,5.15,9.161,6.648,9.161,15.46v26.643h-0.421    c-3.539-4.36-10.3-10.29-22.97-10.29c-19.318,0-32.706,15.502-32.706,35.527c0,20.005,12.547,35.507,33.394,35.507    c9.448,0,18.333-3.663,23.257-11.829h0.277l1.795,10.146h14.271V8.445h-28.407V9.687z M574.241,98.889    c-12.393,0-19.871-9.726-19.871-20.292c0-10.577,7.479-20.303,19.871-20.303c12.403,0,19.872,9.726,19.872,20.303    C594.113,89.164,586.645,98.889,574.241,98.889z M743.044,44.055v16.353c-2.821-0.708-5.488-1.272-8.176-1.272    c-15.923,0-18.18,13.388-18.18,17.061v36.225h-16.906V62.429c0-8.515-0.452-9.787-7.336-14.147l-4.236-2.801l-0.052-0.749h28.53    v10.752h0.298c3.652-7.756,11.121-12.414,20.005-12.414C739.104,43.069,741.074,43.5,743.044,44.055z M367.493,44.485H383.2V58.92    h-15.707v53.501h-16.979V64.757c0-5.673-1.139-6.915-7.869-12.239l-8.617-7.007v-1.026h16.486V32.144    c0-18.363,11.972-30.008,37.894-24.837l3.919,14.321l-0.81,0.667c-13.54-5.324-24.024-1.929-24.024,9.9V44.485z M527.788,69.702    v42.719h-16.917V74.78c0-7.458-1.888-16.486-13.736-16.486c-11.132,0-15.502,8.177-15.502,17.194v36.933h-16.896V62.429    c0-8.515-0.462-9.787-7.346-14.147l-4.236-2.801v-0.749h13.213v0.041h14.425v10.3h0.276c5.571-8.279,14.035-12.003,21.523-12.003    C518.576,43.069,527.788,54.016,527.788,69.702z M180.747,98.828l0.554,0.349l-8.392,13.449    c-13.788,3.734-29.279-0.246-29.279-22.354V59.135l-0.021,3.714c0-4.36-0.708-4.145-10.197-11.962l-6.135-5.304v-0.811h16.425    l6.176-19.605h10.731v19.605h18.086v14.363h-18.086V89.8C160.609,102.018,168.959,102.295,180.747,98.828z"/>

	<g>

		<path fill="#FFFFFF" d="M750.995,6.414c1.426,0.595,2.667,1.426,3.724,2.488c1.047,1.067,1.878,2.308,2.473,3.739     c0.605,1.437,0.903,2.975,0.903,4.612c0,1.662-0.298,3.206-0.903,4.622c-0.595,1.426-1.426,2.662-2.473,3.713     c-1.057,1.052-2.298,1.878-3.724,2.473c-1.437,0.6-2.985,0.903-4.647,0.903s-3.211-0.303-4.637-0.903     c-1.427-0.595-2.678-1.421-3.725-2.473c-1.057-1.051-1.877-2.288-2.482-3.713c-0.595-1.416-0.893-2.96-0.893-4.622     c0-1.637,0.298-3.175,0.893-4.612c0.605-1.431,1.426-2.672,2.482-3.739c1.047-1.062,2.298-1.893,3.725-2.488     c1.426-0.6,2.975-0.903,4.637-0.903S749.559,5.814,750.995,6.414z M742.388,7.979c-1.211,0.523-2.257,1.236-3.14,2.139     c-0.882,0.908-1.579,1.97-2.072,3.185c-0.492,1.226-0.738,2.539-0.738,3.95c0,1.41,0.246,2.724,0.738,3.944     c0.493,1.226,1.19,2.288,2.072,3.186c0.883,0.913,1.929,1.626,3.14,2.154c1.211,0.523,2.534,0.785,3.96,0.785     c1.405,0,2.719-0.262,3.939-0.785c1.2-0.528,2.247-1.241,3.14-2.154c0.882-0.897,1.569-1.959,2.072-3.186     c0.513-1.221,0.77-2.534,0.77-3.944c0-1.411-0.257-2.724-0.77-3.95c-0.503-1.215-1.19-2.277-2.072-3.185     c-0.893-0.903-1.939-1.616-3.14-2.139c-1.221-0.533-2.534-0.795-3.939-0.795C744.922,7.184,743.599,7.445,742.388,7.979z      M742.09,24.039V10.466h5.202c1.549,0,2.656,0.318,3.364,0.964c0.708,0.641,1.057,1.575,1.057,2.791     c0,0.59-0.092,1.108-0.267,1.549c-0.174,0.441-0.421,0.815-0.738,1.123c-0.318,0.303-0.677,0.544-1.088,0.724     c-0.42,0.174-0.852,0.313-1.313,0.39l4.042,6.032h-1.96l-3.816-6.032h-2.811v6.032H742.09z M747.466,16.54     c0.492-0.031,0.944-0.118,1.313-0.267c0.379-0.149,0.688-0.385,0.923-0.708c0.226-0.328,0.339-0.769,0.339-1.344     c0-0.482-0.093-0.872-0.267-1.165c-0.175-0.297-0.421-0.533-0.718-0.713c-0.309-0.174-0.646-0.303-1.037-0.359     c-0.379-0.066-0.779-0.097-1.189-0.097h-3.067v4.704h2.205C746.471,16.591,746.974,16.576,747.466,16.54z"/>

	</g>

</g>

</svg>