<?xml version="1.0" encoding="UTF-8"?>
<!-- Generator: Adobe Illustrator 26.2.1, SVG Export Plug-In . SVG Version: 6.00 Build 0)  -->
<svg version="1.1" id="Layer_3" xmlns="http://www.w3.org/2000/svg" xmlns:xlink="http://www.w3.org/1999/xlink" x="0px" y="0px" viewBox="0 0 200 40" style="enable-background:new 0 0 200 40;" xml:space="preserve">
<style type="text/css">
	.st0{fill:url(#SVGID_1_);}
	.st1{fill:#FFFFFF;}
</style>
<metadata><?xpacket begin="﻿" id="W5M0MpCehiHzreSzNTczkc9d"?>
<x:xmpmeta xmlns:x="adobe:ns:meta/" x:xmptk="Adobe XMP Core 7.1-c000 79.b0f8be9, 2021/12/08-19:11:22        ">
   <rdf:RDF xmlns:rdf="http://www.w3.org/1999/02/22-rdf-syntax-ns#">
      <rdf:Description rdf:about="" xmlns:xmp="http://ns.adobe.com/xap/1.0/" xmlns:xmpGImg="http://ns.adobe.com/xap/1.0/g/img/" xmlns:xmpTPg="http://ns.adobe.com/xap/1.0/t/pg/" xmlns:stDim="http://ns.adobe.com/xap/1.0/sType/Dimensions#" xmlns:xmpG="http://ns.adobe.com/xap/1.0/g/" xmlns:dc="http://purl.org/dc/elements/1.1/">
         <xmp:CreatorTool>Adobe Illustrator 26.2 (Windows)</xmp:CreatorTool>
         <xmp:CreateDate>2022-05-10T16:50:17+03:00</xmp:CreateDate>
         <xmp:Thumbnails>
            <rdf:Alt>
               <rdf:li rdf:parseType="Resource">
                  <xmpGImg:width>256</xmpGImg:width>
                  <xmpGImg:height>44</xmpGImg:height>
                  <xmpGImg:format>JPEG</xmpGImg:format>
                  <xmpGImg:image>/9j/4AAQSkZJRgABAgEASABIAAD/7QAsUGhvdG9zaG9wIDMuMAA4QklNA+0AAAAAABAASAAAAAEA
AQBIAAAAAQAB/+4ADkFkb2JlAGTAAAAAAf/bAIQABgQEBAUEBgUFBgkGBQYJCwgGBggLDAoKCwoK
DBAMDAwMDAwQDA4PEA8ODBMTFBQTExwbGxscHx8fHx8fHx8fHwEHBwcNDA0YEBAYGhURFRofHx8f
Hx8fHx8fHx8fHx8fHx8fHx8fHx8fHx8fHx8fHx8fHx8fHx8fHx8fHx8fHx8f/8AAEQgALAEAAwER
AAIRAQMRAf/EAaIAAAAHAQEBAQEAAAAAAAAAAAQFAwIGAQAHCAkKCwEAAgIDAQEBAQEAAAAAAAAA
AQACAwQFBgcICQoLEAACAQMDAgQCBgcDBAIGAnMBAgMRBAAFIRIxQVEGE2EicYEUMpGhBxWxQiPB
UtHhMxZi8CRygvElQzRTkqKyY3PCNUQnk6OzNhdUZHTD0uIIJoMJChgZhJRFRqS0VtNVKBry4/PE
1OT0ZXWFlaW1xdXl9WZ2hpamtsbW5vY3R1dnd4eXp7fH1+f3OEhYaHiImKi4yNjo+Ck5SVlpeYmZ
qbnJ2en5KjpKWmp6ipqqusra6voRAAICAQIDBQUEBQYECAMDbQEAAhEDBCESMUEFURNhIgZxgZEy
obHwFMHR4SNCFVJicvEzJDRDghaSUyWiY7LCB3PSNeJEgxdUkwgJChgZJjZFGidkdFU38qOzwygp
0+PzhJSktMTU5PRldYWVpbXF1eX1RlZmdoaWprbG1ub2R1dnd4eXp7fH1+f3OEhYaHiImKi4yNjo
+DlJWWl5iZmpucnZ6fkqOkpaanqKmqq6ytrq+v/aAAwDAQACEQMRAD8Ai+laPr3m3XvqlpW81W8L
ys0sgUuVBd2Z3IFaDPTc+bHp8dnaAfQ9XkhghZ2iGSt+Qf5mn/pXRf8ASTB/zVmtPbmm/nH5F0GX
tHCeR+xTb8gPzPP/AErov+kmD/mrIntvTfzvsLrsupgeRUm/5x9/NE/9K6L/AKSYP+a8ge2tN/O+
wuuym+TH/OH5WedPKemx6lrlokFpLMtujpNHITIys4FEYn7MZy3B2hizS4YGzz5Or1GMgWX0F/zj
be3d1+WyrcTNKLa8mgt+ZrwiCowQV7AsaZzXbUQM+3UBu0JJh8XqealzHYq7FXYq7FXYq7FXYq7F
XYq7FXYq7FXYq7FXYq7FXYq7FXYq7FXYq7FXYq7FXYq+Rvyq8xaV5d87Weq6rKYbKFJlkkVWcgvE
yr8Kgnqc9F7W0882AwhvI1973va+GWXEYx57Pdj+fn5ZD/pYy/8ASNP/AM05yP8AIeq/mj5h5CXZ
2Ycx9q0/n/8AlgP+ljL/ANI0/wDzRg/kTU/zftDRLTTHMNH/AJyC/K4f9LKX/pGn/wCaMH8i6n+b
9oaZCubzf89vzT8l+bPKNppuh3bz3cWoR3Do0MkYEawzITV1A+1IM2XZXZ+XDkMpihw1z8w4GryA
xpmn/OMn/kuJf+2jP/ybizA7b/v/APNH6U6D6Pi9azTua7FXYq7FXYq7FXYq7FXYq7FXYq7FXYq7
FXYq7FXYq7FXYq7FXYq7FXYq7FXYq7FXyd+Telabqn5gWNlqVtHd2jxzl4JlDoSsTEVB8CM9C7ay
yx6cyiaO33vd9tZJQwkxNHb730Z/yrT8vv8AqXrD/kQn9M4r+UdR/Pl83jDq8p5yLX/Ksvy9/wCp
dsP+RCf0wfyhqP58vm1nNM8y1/yrD8u/+pc0/wD6R0/pj/KGf+fL5tZN83ln/ORXkzyponkmyu9I
0m1sLl9Siiea3iWNihgnYqSB0qoObXsbU5MmUiUiRw/pDh6uIEWQf84yf+S4l/7aM/8AybizG7b/
AL//ADR+lGg+j4vWs07muxV2KuxV2KuxV2KuxV2KuxV2KuxV2KuxV2KuxV2KuxV2KuxV2KuxV2Ku
xV2KuxV8c+QdK8xap5ot7Ly7ejT9VdJDDdM7xBVVCXHKNXbdQR0z0ntHLjx4jLIOKG2z6B2nkhDG
TMXF6sfy0/Pvt5wi/wCky7/6oZzv8o6D/Uj/AKWP63l56rTHlD7B+tYfyy/P/t5xi/6Tbz/qhkf5
Q0H+pf7GP63DnmxHlFlX5a+TvzR0XXZ7rzXr6arpz2rxRW63E8xWYyRsr8ZY412RWFa98wNfqtNk
gBihwyvuA237i4siDySf/nKP/wAl/p//AG1of+oa4yzsL++P9X9IcLWfR8Vf/nGT/wAlxL/20Z/+
TcWR7b/v/wDNH6WOg+j4vWs07muxV2KuxV2KuxV2KuxV2KuxV2KuxV2KuxV2KuxV2KuxV2KuxV2K
uxV2KuxV2KuxV8gflt5q0/yt5vtdZ1COaW1gSVXS3CtITJGyCgdkHU+Oej9p6WWfCYRqzXN7/tXT
yy4jCPN7Mf8AnJbyIP8Ajw1T/kVb/wDVfOX/ANDufvh8z/xLyc+yskesft/UsP8Azk15DH/Hhqn/
ACKt/wDsowf6Hs/fD5n9TjS0ko9y0/8AOT3kEf8AHhqv/Im2/wCyjI/yBn74fM/qcaY4Xn/5z/nL
5Y87eV7XStKtb2C4gvo7p3uo4kQokUsZAMcsh5VkHbM/s3szJgyGUjGqra/LydfqsgMaeif84yf+
S4l/7aM//JuLNZ23/f8A+aP0stB9HxetZp3NdirsVdirsVdirsVdirsVdirsVdirsVdirsVdirsV
dirsVdirsVdirsVdirsVdir5q1n/AKF9/Sd1w/S3D1Gp9T4fV+v+6vU+Lj4Vzt8X8o8Avg+PP409
ePz/AAji4Pjz+KAb/oX7v+nv+SGSP8of7X9rh5fzXXgUm/6F67/p/wD5IZA/n/8Aa/tddl8XrSm3
/Qu/f/EH/JDIn8//ALX9rr8t9VNv+hdO/wDiD/khkD+e/wBr+11+Xw+tvoL8qf8ABf8Agu0/wfy/
RHJ6+rX1vWr+89av7f4UpTamc1r/ABfFPi/V+OTfp+Dh9PJl+Ybe7FXYq7FXYq7FXYq7FXYq7FXY
q7FXYq7FXYq7FXYq7FXYq7FXYq7FXYq7FXYq7FX/2Q==</xmpGImg:image>
               </rdf:li>
            </rdf:Alt>
         </xmp:Thumbnails>
         <xmpTPg:MaxPageSize rdf:parseType="Resource">
            <stDim:w>200.000000</stDim:w>
            <stDim:h>40.000000</stDim:h>
            <stDim:unit>Pixels</stDim:unit>
         </xmpTPg:MaxPageSize>
         <xmpTPg:NPages>1</xmpTPg:NPages>
         <xmpTPg:HasVisibleTransparency>False</xmpTPg:HasVisibleTransparency>
         <xmpTPg:HasVisibleOverprint>False</xmpTPg:HasVisibleOverprint>
         <xmpTPg:PlateNames>
            <rdf:Seq>
               <rdf:li>Cyan</rdf:li>
               <rdf:li>Magenta</rdf:li>
            </rdf:Seq>
         </xmpTPg:PlateNames>
         <xmpTPg:SwatchGroups>
            <rdf:Seq>
               <rdf:li rdf:parseType="Resource">
                  <xmpG:groupName>Default Swatch Group</xmpG:groupName>
                  <xmpG:groupType>0</xmpG:groupType>
               </rdf:li>
            </rdf:Seq>
         </xmpTPg:SwatchGroups>
         <dc:format>image/svg+xml</dc:format>
      </rdf:Description>
   </rdf:RDF>
</x:xmpmeta>
                                                                                                    
                                                                                                    
                                                                                                    
                                                                                                    
                                                                                                    
                                                                                                    
                                                                                                    
                                                                                                    
                                                                                                    
                                                                                                    
                                                                                                    
                                                                                                    
                                                                                                    
                                                                                                    
                                                                                                    
                                                                                                    
                                                                                                    
                                                                                                    
                                                                                                    
                                                                                                    
                           
<?xpacket end="w"?>
	</metadata>
<g>
	<g>
		
			<linearGradient id="SVGID_1_" gradientUnits="userSpaceOnUse" x1="0" y1="382" x2="33.3306" y2="382" gradientTransform="matrix(1 0 0 -1 0 402)">
			<stop offset="0" style="stop-color:#BA03DA"/>
			<stop offset="1" style="stop-color:#053FA3"/>
		</linearGradient>
		<path class="st0" d="M30.9,36.7H2.4c-1.3,0-2.4-1.1-2.4-2.4V5.8c0-1.3,1.1-2.4,2.4-2.4h28.5c1.3,0,2.4,1.1,2.4,2.4v28.5    C33.3,35.6,32.2,36.7,30.9,36.7z"/>
		<path class="st1" d="M28.8,7.9v6.1H4.5V7.9H28.8z M4.5,23h18.2v3H4.5v6.1h18.2l0,0h6.1l0,0l0,0v-6.1l0,0v-3l0,0V17H4.5V23z"/>
	</g>
	<path class="st1" d="M51.6,16.1c-0.6-0.3-1.2-0.6-1.8-0.8c-0.6-0.2-1.2-0.3-1.7-0.3c-0.6,0-1.2,0.1-1.5,0.4   c-0.4,0.3-0.6,0.7-0.6,1.2c0,0.4,0.1,0.7,0.4,1s0.6,0.5,1.1,0.8c0.4,0.2,0.9,0.4,1.4,0.6c0.4,0.2,0.9,0.4,1.3,0.6   c0.4,0.2,0.8,0.5,1.2,0.8c0.3,0.3,0.6,0.8,0.8,1.3c0.2,0.5,0.3,1.1,0.3,1.9c0,0.8-0.2,1.5-0.6,2.2c-0.4,0.7-1,1.2-1.8,1.6   c-0.8,0.4-1.7,0.6-2.9,0.6c-0.6,0-1.2-0.1-1.8-0.2c-0.6-0.1-1.2-0.3-1.8-0.5c-0.6-0.2-1.1-0.5-1.7-0.9l1.3-2.3   c0.4,0.3,0.7,0.5,1.2,0.7s0.8,0.4,1.3,0.5c0.4,0.1,0.8,0.2,1.2,0.2c0.4,0,0.7,0,1.1-0.2c0.4-0.1,0.7-0.3,0.9-0.5   c0.2-0.2,0.4-0.6,0.4-1c0-0.3-0.1-0.6-0.3-0.8c-0.2-0.2-0.5-0.5-0.8-0.7c-0.3-0.2-0.7-0.4-1.1-0.5c-0.5-0.2-1-0.4-1.4-0.6   c-0.5-0.2-1-0.5-1.4-0.9c-0.4-0.3-0.8-0.8-1.1-1.3c-0.3-0.5-0.4-1.1-0.4-1.9c0-0.9,0.2-1.6,0.6-2.3c0.4-0.6,0.9-1.2,1.7-1.5   c0.7-0.4,1.5-0.6,2.5-0.6c1.2,0,2.2,0.1,3,0.4c0.8,0.3,1.5,0.6,2.1,1L51.6,16.1z M112.4,12.4c1.3,0,2.3,0.2,3.2,0.6   c0.9,0.4,1.5,1,2,1.8c0.2,0.4,0.5,1.1,0.6,2c0.1,0.9-0.1,1.6-0.2,1.9c-0.2,0.6-0.5,1.2-0.9,1.7c-0.4,0.5-1,0.9-1.6,1.2   s-1.5,0.5-2.5,0.5h-1.1v5.5h-3V12.4H112.4z M112.9,19.2c0.5,0,0.8-0.1,1.1-0.2s0.5-0.4,0.7-0.6c0.2-0.2,0.3-0.5,0.3-0.8   c0-0.1,0-0.2,0-0.3c0-0.1,0-0.2,0-0.3c0-0.3-0.1-0.5-0.3-0.8c-0.1-0.3-0.4-0.5-0.7-0.7c-0.3-0.2-0.7-0.3-1.3-0.3h-1.1v3.9H112.9z    M130.3,16.1c-0.6-0.3-1.2-0.6-1.8-0.8c-0.6-0.2-1.2-0.3-1.7-0.3c-0.6,0-1.2,0.1-1.5,0.4s-0.6,0.7-0.6,1.2c0,0.4,0.1,0.7,0.4,1   s0.6,0.5,1.1,0.8c0.4,0.2,0.9,0.4,1.4,0.6c0.4,0.2,0.9,0.4,1.3,0.6c0.4,0.2,0.8,0.5,1.2,0.8c0.3,0.3,0.6,0.8,0.8,1.3   c0.2,0.5,0.3,1.1,0.3,1.9c0,0.8-0.2,1.5-0.6,2.2s-1,1.2-1.8,1.6c-0.8,0.4-1.7,0.6-2.9,0.6c-0.6,0-1.2-0.1-1.8-0.2   c-0.6-0.1-1.2-0.3-1.8-0.5c-0.6-0.2-1.1-0.5-1.7-0.9l1.3-2.3c0.4,0.3,0.7,0.5,1.2,0.7c0.4,0.2,0.8,0.4,1.3,0.5   c0.4,0.1,0.8,0.2,1.2,0.2c0.4,0,0.7,0,1.1-0.2c0.4-0.1,0.7-0.3,0.9-0.5c0.2-0.2,0.4-0.6,0.4-1c0-0.3-0.1-0.6-0.3-0.8   s-0.5-0.5-0.8-0.7c-0.3-0.2-0.7-0.4-1.1-0.5c-0.5-0.2-1-0.4-1.4-0.6c-0.5-0.2-1-0.5-1.4-0.9c-0.4-0.3-0.8-0.8-1.1-1.3   s-0.4-1.1-0.4-1.9c0-0.9,0.2-1.6,0.6-2.3c0.4-0.6,0.9-1.2,1.7-1.5c0.7-0.4,1.5-0.6,2.5-0.6c1.2,0,2.2,0.1,3,0.4   c0.8,0.3,1.5,0.6,2.1,1L130.3,16.1z M165.1,20c0-1,0.2-2,0.6-3c0.4-0.9,1-1.8,1.7-2.5c0.7-0.7,1.5-1.3,2.5-1.7   c0.9-0.4,1.9-0.6,3-0.6c1.1,0,2.1,0.2,3,0.6c0.9,0.4,1.8,1,2.5,1.7c0.7,0.7,1.3,1.6,1.7,2.5c0.4,0.9,0.6,1.9,0.6,3   c0,1.1-0.2,2.1-0.6,3c-0.4,0.9-1,1.8-1.7,2.5c-0.7,0.7-1.6,1.3-2.5,1.7c-0.9,0.4-1.9,0.6-3,0.6c-1.1,0-2.1-0.2-3-0.6   c-0.9-0.4-1.8-1-2.5-1.7c-0.7-0.7-1.3-1.5-1.7-2.5C165.3,22.1,165.1,21.1,165.1,20z M168.2,20c0,0.7,0.1,1.3,0.4,1.9   c0.2,0.6,0.6,1.1,1,1.6s0.9,0.8,1.5,1c0.6,0.2,1.2,0.4,1.9,0.4c0.6,0,1.3-0.1,1.8-0.4c0.6-0.2,1-0.6,1.5-1c0.4-0.4,0.7-1,1-1.6   c0.2-0.6,0.3-1.2,0.3-1.9c0-0.7-0.1-1.3-0.4-1.9c-0.2-0.6-0.6-1.1-1-1.6s-0.9-0.8-1.5-1c-0.6-0.2-1.2-0.4-1.8-0.4s-1.3,0.1-1.8,0.4   c-0.6,0.2-1.1,0.6-1.5,1c-0.4,0.4-0.8,1-1,1.6C168.3,18.7,168.2,19.3,168.2,20z M200,12.1l-7.5,6.1l-7.5-6.1h0v15.6h2.9v-9l4.7,3.8   l0,0l0,0l0,0l0,0l4.7-3.8v9h2.9L200,12.1L200,12.1z M160.1,23.9c-0.3,0.3-0.6,0.5-1,0.6c-0.6,0.2-1.2,0.4-1.8,0.4   c-0.7,0-1.3-0.1-1.9-0.4c-0.6-0.2-1.1-0.6-1.5-1c-0.4-0.4-0.8-1-1-1.6c-0.2-0.6-0.4-1.2-0.4-1.9c0-0.7,0.1-1.3,0.3-1.9   c0.2-0.6,0.6-1.1,1-1.6c0.4-0.4,0.9-0.8,1.5-1s1.2-0.4,1.8-0.4s1.3,0.1,1.8,0.4c0.4,0.2,0.7,0.4,1.1,0.7l2.1-2.1   c-0.6-0.5-1.3-0.9-2-1.3c-0.9-0.4-1.9-0.6-3-0.6c-1.1,0-2.1,0.2-3,0.6s-1.8,1-2.5,1.7c-0.7,0.7-1.3,1.6-1.7,2.5   c-0.4,0.9-0.6,1.9-0.6,3c0,1.1,0.2,2.1,0.6,3c0.4,0.9,1,1.8,1.7,2.5c0.7,0.7,1.5,1.3,2.5,1.7c0.9,0.4,1.9,0.6,3,0.6   c1.1,0,2.1-0.2,3-0.6c0.7-0.3,1.4-0.7,2-1.2L160.1,23.9z M135.7,15.3h10v-2.9h-10V15.3z M135.7,27.6h10v-2.9h-10V27.6z M135.7,21.4   h8.5v-2.9h-8.5V21.4z M66.8,12.4l-3.4,6l-3.5-6h-3.4l5.3,9.5v5.8h3v-5.8l5.4-9.5H66.8z M97.2,12.3l-7.5,15.3h3l4.5-9.2l4.5,9.2h3   L97.2,12.3z M82.6,12.4L82.6,12.4v9.1l-9.4-9.3v15.5h3v-8.9l9.4,9.2v-5.8v-9.7H82.6z"/>
</g>
</svg>