<svg xmlns="http://www.w3.org/2000/svg" width="755" height="262" viewBox="0 0 755 262" version="1.1"><path d="M 111.688 26.714 C 112.892 26.938, 114.084 27.778, 114.337 28.580 C 114.628 29.505, 114.739 29.392, 114.640 28.270 C 114.538 27.122, 113.607 26.466, 111.991 26.404 C 109.939 26.324, 109.886 26.379, 111.688 26.714 M 153.558 32.907 C 153.249 33.405, 153.898 33.578, 154.999 33.290 C 157.267 32.697, 157.598 33.902, 155.757 36.050 C 155.074 36.848, 155.352 36.756, 156.375 35.846 C 157.399 34.936, 157.932 33.699, 157.559 33.096 C 156.739 31.769, 154.331 31.655, 153.558 32.907 M 212.917 53.153 C 213.559 54.062, 213.727 55.001, 213.292 55.239 C 212.856 55.477, 213.025 55.549, 213.667 55.399 C 214.309 55.249, 215.083 55.773, 215.386 56.563 C 215.789 57.613, 215.071 58.040, 212.719 58.150 C 209.524 58.299, 209.522 58.303, 212.372 58.728 C 216.736 59.379, 217.537 57.698, 214.442 54.383 C 212.962 52.797, 212.275 52.244, 212.917 53.153 M 58.453 60.250 L 54.500 64.500 58.750 60.547 C 62.702 56.871, 63.460 56, 62.703 56 C 62.540 56, 60.627 57.913, 58.453 60.250 M 51.750 69.706 C 52.987 69.944, 55.013 69.944, 56.250 69.706 C 57.487 69.467, 56.475 69.272, 54 69.272 C 51.525 69.272, 50.513 69.467, 51.750 69.706 M 534.676 73.687 C 535.322 74.148, 536.049 76.320, 536.292 78.513 C 536.730 82.470, 536.732 82.467, 536.617 78.078 C 536.537 75.065, 536.022 73.527, 535 73.252 C 533.969 72.974, 533.868 73.110, 534.676 73.687 M 348.389 88.500 C 348.390 95.650, 348.550 98.444, 348.742 94.708 C 348.935 90.973, 348.934 85.123, 348.739 81.708 C 348.545 78.294, 348.387 81.350, 348.389 88.500 M 358.808 76.719 L 366.116 77.090 365.808 88.999 C 365.639 95.549, 365.853 100.553, 366.284 100.120 C 366.716 99.686, 366.941 94.194, 366.784 87.916 L 366.500 76.500 359 76.424 L 351.500 76.349 358.808 76.719 M 410.382 87.500 C 410.384 94.100, 410.546 96.670, 410.741 93.211 C 410.937 89.752, 410.936 84.352, 410.738 81.211 C 410.540 78.070, 410.380 80.900, 410.382 87.500 M 443.807 88.502 C 443.638 95.378, 443.837 101.003, 444.250 101.002 C 444.663 101.001, 445 95.375, 445 88.500 C 445 81.625, 444.801 76, 444.557 76 C 444.314 76, 443.976 81.626, 443.807 88.502 M 450.768 76.725 C 452.565 76.947, 455.265 76.943, 456.768 76.715 C 458.271 76.486, 456.800 76.304, 453.500 76.310 C 450.200 76.315, 448.971 76.502, 450.768 76.725 M 474.667 76.667 C 473.745 77.589, 473.823 99.772, 474.750 100.348 C 475.163 100.605, 475.361 95.456, 475.191 88.907 L 474.882 77 481.410 77 L 487.938 77 488.253 89.250 L 488.568 101.500 488.784 88.750 L 489 76 482.167 76 C 478.408 76, 475.033 76.300, 474.667 76.667 M 522 76.941 C 522 77.459, 522.520 78.203, 523.155 78.595 C 523.903 79.058, 524.036 78.867, 523.534 78.055 C 522.939 77.093, 524.046 76.882, 528.286 77.150 C 531.326 77.343, 533.604 77.162, 533.348 76.750 C 532.666 75.652, 522 75.832, 522 76.941 M 544.750 76.706 C 545.987 76.944, 548.013 76.944, 549.250 76.706 C 550.487 76.467, 549.475 76.272, 547 76.272 C 544.525 76.272, 543.513 76.467, 544.750 76.706 M 554 87.941 C 554 94.509, 554.337 100.092, 554.750 100.348 C 555.163 100.605, 555.361 95.485, 555.192 88.971 L 554.884 77.128 558.692 76.732 L 562.500 76.336 558.250 76.168 L 554 76 554 87.941 M 588 81 L 588 86 581.555 86 L 575.110 86 574.703 81.250 L 574.296 76.500 574.398 81.500 L 574.500 86.500 581.750 86.794 L 589 87.088 589 81.544 C 589 78.495, 588.775 76, 588.500 76 C 588.225 76, 588 78.250, 588 81 M 592.175 88.250 C 592.079 95.263, 592.337 101.001, 592.750 101.002 C 593.163 101.004, 593.380 97.066, 593.232 92.252 C 592.757 76.718, 592.354 75.191, 592.175 88.250 M 645.995 88.204 C 645.723 95.191, 645.852 100.553, 646.283 100.120 C 646.714 99.688, 646.937 93.971, 646.779 87.417 L 646.491 75.500 645.995 88.204 M 503.995 88.704 C 503.723 95.416, 503.853 100.553, 504.284 100.120 C 504.716 99.686, 504.938 94.194, 504.779 87.916 L 504.490 76.500 503.995 88.704 M 607 84 C 607 86.200, 607.178 88, 607.395 88 C 607.612 88, 607.962 86.200, 608.171 84 C 608.381 81.800, 608.203 80, 607.776 80 C 607.349 80, 607 81.800, 607 84 M 135.405 84.750 C 136.453 85.987, 136.925 87, 136.455 87 C 135.985 87, 136.140 87.540, 136.800 88.200 C 137.733 89.133, 138.278 89.120, 139.250 88.141 C 140.253 87.131, 140.121 87.026, 138.586 87.611 C 137.364 88.076, 136.903 87.965, 137.312 87.304 C 137.665 86.734, 136.951 85.420, 135.726 84.384 L 133.500 82.500 135.405 84.750 M 681.286 88.500 C 681.294 91.250, 681.488 92.256, 681.718 90.736 C 681.947 89.216, 681.941 86.966, 681.704 85.736 C 681.467 84.506, 681.279 85.750, 681.286 88.500 M 452.978 86.745 C 455.991 86.952, 458.797 87.656, 459.213 88.310 C 459.721 89.109, 459.974 88.925, 459.985 87.750 C 459.998 86.249, 459.111 86.026, 453.750 86.185 L 447.500 86.370 452.978 86.745 M 413.136 93.750 C 413.061 97.737, 413.337 101, 413.750 101.001 C 414.163 101.001, 414.370 98.638, 414.211 95.751 C 413.727 86.948, 413.280 86.115, 413.136 93.750 M 433.196 95.167 C 433.067 100.206, 432.572 103.006, 431.750 103.338 C 430.771 103.733, 430.778 103.859, 431.781 103.921 C 433.711 104.040, 434.134 101.992, 433.745 94.401 L 433.392 87.500 433.196 95.167 M 630.300 93 C 630.300 96.025, 630.487 97.263, 630.716 95.750 C 630.945 94.237, 630.945 91.763, 630.716 90.250 C 630.487 88.737, 630.300 89.975, 630.300 93 M 214 89.883 C 214 90.672, 217.478 92.072, 218.418 91.662 C 218.623 91.573, 219.850 92.397, 221.145 93.493 L 223.500 95.486 221.105 92.774 C 219.787 91.282, 218.325 90.299, 217.855 90.590 C 217.385 90.880, 217 90.641, 217 90.059 C 217 89.477, 216.325 89, 215.500 89 C 214.675 89, 214 89.398, 214 89.883 M 574.116 94.191 C 574.052 97.321, 574.337 100.091, 574.750 100.346 C 575.163 100.600, 575.366 98.715, 575.201 96.155 C 574.732 88.852, 574.243 87.966, 574.116 94.191 M 588.320 95 C 588.320 98.575, 588.502 100.037, 588.723 98.250 C 588.945 96.463, 588.945 93.537, 588.723 91.750 C 588.502 89.963, 588.320 91.425, 588.320 95 M 385 91.250 C 385 91.662, 387.250 92, 390 92 C 392.750 92, 395 91.662, 395 91.250 C 395 90.838, 392.750 90.500, 390 90.500 C 387.250 90.500, 385 90.838, 385 91.250 M 37.336 99 C 37.336 103.125, 37.513 104.813, 37.728 102.750 C 37.944 100.688, 37.944 97.313, 37.728 95.250 C 37.513 93.188, 37.336 94.875, 37.336 99 M 73.405 92.845 C 73.797 93.480, 73.694 94, 73.176 94 C 71.886 94, 70.969 97.863, 72.094 98.558 C 72.592 98.866, 73 98.281, 73 97.259 C 73 96.237, 73.489 94.911, 74.087 94.313 C 74.870 93.530, 74.827 93.011, 73.933 92.458 C 73.132 91.964, 72.945 92.101, 73.405 92.845 M 109.750 95.706 C 110.987 95.944, 113.013 95.944, 114.250 95.706 C 115.487 95.467, 114.475 95.272, 112 95.272 C 109.525 95.272, 108.513 95.467, 109.750 95.706 M 86.689 99.250 C 83.575 102.334, 83.563 102.373, 86.454 100.008 C 88.129 98.637, 89.927 97.175, 90.450 96.758 C 90.973 96.341, 91.078 96, 90.685 96 C 90.292 96, 88.494 97.463, 86.689 99.250 M 454 100 L 447.500 100.655 453.691 100.827 C 457.096 100.922, 460.160 100.550, 460.500 100 C 460.840 99.450, 460.979 99.078, 460.809 99.173 C 460.639 99.268, 457.575 99.640, 454 100 M 520 100.224 C 520 100.651, 522.587 100.948, 525.750 100.884 C 531.853 100.761, 531.255 100.319, 524.250 99.776 C 521.913 99.595, 520 99.797, 520 100.224 M 309.784 121.738 C 312.689 121.941, 317.189 121.939, 319.784 121.734 C 322.378 121.528, 320 121.363, 314.500 121.365 C 309 121.368, 306.878 121.536, 309.784 121.738 M 361.300 126 C 361.300 129.025, 361.487 130.262, 361.716 128.750 C 361.945 127.237, 361.945 124.763, 361.716 123.250 C 361.487 121.737, 361.300 122.975, 361.300 126 M 452.784 121.738 C 455.689 121.941, 460.189 121.939, 462.784 121.734 C 465.378 121.528, 463 121.363, 457.500 121.365 C 452 121.368, 449.878 121.536, 452.784 121.738 M 662.300 126 C 662.300 129.025, 662.487 130.262, 662.716 128.750 C 662.945 127.237, 662.945 124.763, 662.716 123.250 C 662.487 121.737, 662.300 122.975, 662.300 126 M 301.219 138.167 C 301.060 148.793, 300.656 152.972, 299.750 153.338 C 298.771 153.733, 298.778 153.859, 299.781 153.921 C 301.850 154.048, 302.076 152.155, 301.749 137.452 L 301.439 123.500 301.219 138.167 M 310.280 124.736 C 312.909 124.943, 316.959 124.940, 319.280 124.731 C 321.601 124.521, 319.450 124.352, 314.500 124.355 C 309.550 124.358, 307.651 124.530, 310.280 124.736 M 340.219 138.167 C 340.060 148.793, 339.656 152.972, 338.750 153.338 C 337.771 153.733, 337.778 153.859, 338.781 153.921 C 340.850 154.048, 341.076 152.155, 340.749 137.452 L 340.439 123.500 340.219 138.167 M 448.438 125.300 C 448.164 126.016, 448.065 132.616, 448.220 139.969 C 448.426 149.821, 448.835 153.404, 449.775 153.593 C 450.476 153.734, 450.589 153.621, 450.025 153.342 C 449.398 153.031, 449 147.423, 449 138.917 L 449 125 457 125 L 465 125 465 138.917 C 465 147.423, 464.602 153.031, 463.975 153.342 C 463.411 153.621, 463.524 153.734, 464.225 153.593 C 465.173 153.402, 465.571 149.577, 465.777 138.668 L 466.053 124 457.495 124 C 451.394 124, 448.794 124.373, 448.438 125.300 M 545.300 129 C 545.300 132.025, 545.487 133.262, 545.716 131.750 C 545.945 130.238, 545.945 127.763, 545.716 126.250 C 545.487 124.737, 545.300 125.975, 545.300 129 M 562.378 135 C 562.378 141.325, 562.541 143.912, 562.739 140.750 C 562.937 137.588, 562.937 132.412, 562.739 129.250 C 562.541 126.088, 562.378 128.675, 562.378 135 M 590.343 131.500 C 590.346 135.900, 590.522 137.576, 590.733 135.224 C 590.945 132.872, 590.942 129.272, 590.727 127.224 C 590.512 125.176, 590.339 127.100, 590.343 131.500 M 603.219 138.167 C 603.060 148.793, 602.656 152.972, 601.750 153.338 C 600.771 153.733, 600.778 153.859, 601.781 153.921 C 603.850 154.048, 604.076 152.155, 603.749 137.452 L 603.439 123.500 603.219 138.167 M 652.750 124.706 C 653.987 124.944, 656.013 124.944, 657.250 124.706 C 658.487 124.467, 657.475 124.272, 655 124.272 C 652.525 124.272, 651.513 124.467, 652.750 124.706 M 344.418 130.745 L 344.500 136.500 351 136.584 L 357.500 136.669 351.299 136.288 L 345.097 135.907 344.716 130.449 L 344.336 124.990 344.418 130.745 M 67.899 128.299 C 68.365 128.765, 70.265 128.989, 72.123 128.798 C 75.417 128.459, 75.396 128.438, 71.276 127.951 C 68.953 127.677, 67.433 127.833, 67.899 128.299 M 565.160 136.250 C 565.323 145.655, 565.719 144.534, 566.222 133.248 C 566.375 129.810, 566.163 126.997, 565.750 126.998 C 565.337 126.999, 565.072 131.162, 565.160 136.250 M 484.300 138 C 484.300 141.025, 484.487 142.262, 484.716 140.750 C 484.945 139.238, 484.945 136.762, 484.716 135.250 C 484.487 133.738, 484.300 134.975, 484.300 138 M 700.310 138.500 C 700.315 141.800, 700.502 143.029, 700.725 141.232 C 700.947 139.435, 700.943 136.735, 700.715 135.232 C 700.486 133.729, 700.304 135.200, 700.310 138.500 M 434.286 138.500 C 434.294 141.250, 434.488 142.256, 434.718 140.736 C 434.947 139.216, 434.941 136.966, 434.704 135.736 C 434.467 134.506, 434.279 135.750, 434.286 138.500 M 506.300 139 C 506.300 142.025, 506.487 143.262, 506.716 141.750 C 506.945 140.238, 506.945 137.762, 506.716 136.250 C 506.487 134.738, 506.300 135.975, 506.300 139 M 524.438 143.419 C 524.488 151.352, 524.800 153.419, 526 153.745 C 527.068 154.035, 527.152 153.905, 526.290 153.292 C 525.538 152.757, 524.948 148.857, 524.728 142.966 L 524.376 133.500 524.438 143.419 M 669.272 139 C 669.272 141.475, 669.467 142.488, 669.706 141.250 C 669.944 140.012, 669.944 137.988, 669.706 136.750 C 669.467 135.512, 669.272 136.525, 669.272 139 M 358 137.448 C 358 138.481, 356.497 139.001, 352.750 139.263 L 347.500 139.630 353.250 139.815 C 358.395 139.981, 359 139.790, 359 138 C 359 136.900, 358.775 136, 358.500 136 C 358.225 136, 358 136.651, 358 137.448 M 612.280 136.736 C 614.909 136.943, 618.959 136.940, 621.280 136.731 C 623.601 136.521, 621.450 136.352, 616.500 136.355 C 611.550 136.358, 609.651 136.530, 612.280 136.736 M 45 138.102 C 43.795 138.963, 43.942 139.077, 45.749 138.681 C 46.986 138.410, 48.250 138.596, 48.558 139.094 C 48.866 139.592, 49.879 139.984, 50.809 139.965 C 52.041 139.939, 51.821 139.541, 50 138.500 C 46.968 136.767, 46.879 136.760, 45 138.102 M 612.280 139.736 C 614.909 139.943, 618.959 139.940, 621.280 139.731 C 623.601 139.521, 621.450 139.352, 616.500 139.355 C 611.550 139.358, 609.651 139.530, 612.280 139.736 M 344.328 146.500 C 344.333 150.350, 344.513 151.802, 344.730 149.728 C 344.946 147.653, 344.943 144.503, 344.722 142.728 C 344.501 140.952, 344.324 142.650, 344.328 146.500 M 56.133 142.561 C 57.030 143.458, 58.604 144.019, 59.632 143.808 C 61.017 143.523, 60.595 143.101, 58.001 142.177 C 54.766 141.024, 54.625 141.053, 56.133 142.561 M 715.986 147.704 C 715.719 151.116, 715.863 153.543, 716.307 153.097 C 716.751 152.651, 716.970 149.859, 716.793 146.893 L 716.472 141.500 715.986 147.704 M 38.607 150.536 C 37.762 151.380, 36.746 152.043, 36.348 152.008 C 35.951 151.973, 35.517 152.680, 35.386 153.578 C 35.198 154.857, 35.726 154.704, 37.823 152.871 C 39.295 151.583, 40.928 150.186, 41.450 149.765 C 42.024 149.302, 41.954 149, 41.271 149 C 40.651 149, 39.452 149.691, 38.607 150.536 M 168.397 165 C 168.397 172.975, 168.553 176.238, 168.743 172.250 C 168.932 168.262, 168.932 161.738, 168.743 157.750 C 168.553 153.762, 168.397 157.025, 168.397 165 M 548 154 C 548 156.295, 547.009 156.543, 544.998 154.750 C 543.806 153.687, 543.794 153.761, 544.921 155.250 C 546.860 157.813, 549 157.420, 549 154.500 C 549 153.125, 548.775 152, 548.500 152 C 548.225 152, 548 152.900, 548 154 M 252.300 159 C 252.300 162.025, 252.487 163.262, 252.716 161.750 C 252.945 160.238, 252.945 157.762, 252.716 156.250 C 252.487 154.738, 252.300 155.975, 252.300 159 M 318.254 155 C 318.562 156.139, 320.325 156.520, 325.580 156.583 L 332.500 156.666 326.026 156.279 C 322.465 156.067, 319.168 155.355, 318.700 154.696 C 318.101 153.856, 317.968 153.946, 318.254 155 M 387.253 155 C 387.551 156.104, 389.219 156.525, 393.579 156.594 L 399.500 156.687 394.022 156.283 C 391.009 156.061, 388.162 155.344, 387.696 154.690 C 387.104 153.860, 386.970 153.953, 387.253 155 M 439.496 155.007 C 438.540 156.554, 441.153 157.138, 447.533 156.804 C 451.240 156.610, 453.434 156.039, 453.596 155.225 C 453.736 154.524, 453.621 154.411, 453.342 154.975 C 453.062 155.539, 449.919 156, 446.358 156 C 442.295 156, 440.112 155.627, 440.500 155 C 440.840 154.450, 440.893 154, 440.618 154 C 440.343 154, 439.838 154.453, 439.496 155.007 M 474 154.833 C 474 155.588, 471.616 156.068, 467.250 156.193 L 460.500 156.385 466.898 156.744 C 472.831 157.077, 476.333 156, 474.683 154.350 C 474.308 153.974, 474 154.192, 474 154.833 M 515.408 155.225 C 515.587 156.109, 517.764 156.500, 522.500 156.500 C 527.236 156.500, 529.413 156.109, 529.592 155.225 C 529.734 154.524, 529.621 154.411, 529.342 154.975 C 529.062 155.539, 525.983 156, 522.500 156 C 519.017 156, 515.938 155.539, 515.658 154.975 C 515.379 154.411, 515.266 154.524, 515.408 155.225 M 612 154.833 C 612 155.578, 609.737 156.068, 605.750 156.189 L 599.500 156.378 605.396 156.743 C 610.872 157.083, 614.293 155.959, 612.683 154.350 C 612.308 153.974, 612 154.192, 612 154.833 M 620.254 155 C 620.562 156.139, 622.325 156.520, 627.580 156.583 L 634.500 156.666 628.026 156.279 C 624.465 156.067, 621.168 155.355, 620.700 154.696 C 620.101 153.856, 619.968 153.946, 620.254 155 M 299.728 156.722 C 301.503 156.943, 304.653 156.946, 306.728 156.730 C 308.802 156.513, 307.350 156.333, 303.500 156.328 C 299.650 156.324, 297.952 156.501, 299.728 156.722 M 368.750 156.723 C 370.538 156.945, 373.462 156.945, 375.250 156.723 C 377.038 156.502, 375.575 156.320, 372 156.320 C 368.425 156.320, 366.962 156.502, 368.750 156.723 M 560.250 156.728 C 562.313 156.944, 565.688 156.944, 567.750 156.728 C 569.813 156.513, 568.125 156.336, 564 156.336 C 559.875 156.336, 558.188 156.513, 560.250 156.728 M 715.750 156.723 C 717.538 156.945, 720.462 156.945, 722.250 156.723 C 724.038 156.502, 722.575 156.320, 719 156.320 C 715.425 156.320, 713.962 156.502, 715.750 156.723 M 86.238 163.465 C 86.497 164.821, 86.252 166.083, 85.692 166.269 C 85.133 166.456, 84.562 167.374, 84.425 168.309 C 84.288 169.244, 84.593 169.751, 85.104 169.436 C 85.615 169.120, 85.797 168.481, 85.510 168.016 C 85.223 167.551, 85.515 166.995, 86.159 166.780 C 87.528 166.324, 87.995 161, 86.666 161 C 86.172 161, 85.979 162.109, 86.238 163.465 M 245 174.833 C 245 175.475, 244.170 176, 243.155 176 C 242.140 176, 240.453 177.012, 239.405 178.250 C 237.502 180.498, 237.502 180.498, 239.579 178.750 C 240.722 177.787, 242.383 177, 243.270 177 C 245.037 177, 246.554 175.221, 245.600 174.267 C 245.270 173.937, 245 174.192, 245 174.833 M 309.690 175.030 C 310.345 175.872, 311.049 179.022, 311.255 182.030 L 311.630 187.500 311.815 181.872 C 311.957 177.550, 311.594 175.927, 310.250 174.872 C 308.718 173.671, 308.648 173.691, 309.690 175.030 M 314.250 174.662 C 313.410 175.001, 313.061 177.188, 313.185 181.333 L 313.370 187.500 313.745 182.030 C 313.951 179.022, 314.598 175.984, 315.182 175.280 C 316.310 173.922, 316.225 173.865, 314.250 174.662 M 317.706 175.050 C 318.370 175.902, 319.066 180.402, 319.253 185.050 L 319.593 193.500 319.796 184.872 C 319.966 177.688, 319.707 176.015, 318.250 174.872 C 316.713 173.667, 316.647 173.689, 317.706 175.050 M 346.080 175.403 C 345.333 176.303, 345.037 179.797, 345.254 185.153 L 345.593 193.500 345.796 184.950 C 345.917 179.898, 346.491 175.909, 347.200 175.200 C 347.860 174.540, 348.140 174, 347.822 174 C 347.505 174, 346.721 174.631, 346.080 175.403 M 371.706 175.050 C 372.370 175.902, 373.066 180.402, 373.253 185.050 L 373.593 193.500 373.796 184.872 C 373.966 177.688, 373.707 176.015, 372.250 174.872 C 370.713 173.667, 370.647 173.689, 371.706 175.050 M 389.706 175.050 C 390.370 175.902, 391.066 180.402, 391.253 185.050 L 391.593 193.500 391.796 184.872 C 391.966 177.688, 391.707 176.015, 390.250 174.872 C 388.713 173.667, 388.647 173.689, 389.706 175.050 M 425.706 175.050 C 426.370 175.902, 427.066 180.402, 427.253 185.050 L 427.593 193.500 427.796 184.872 C 427.966 177.688, 427.707 176.015, 426.250 174.872 C 424.713 173.667, 424.647 173.689, 425.706 175.050 M 451.710 176 C 451.423 177.100, 451.595 178, 452.094 178 C 452.592 178, 453 177.270, 453 176.378 C 453 174.976, 453.238 174.942, 454.750 176.128 C 456.336 177.371, 456.371 177.336, 455.128 175.750 C 453.337 173.466, 452.354 173.538, 451.710 176 M 521 174.975 C 521 175.511, 522.244 175.701, 523.763 175.397 C 526.496 174.851, 526.523 174.895, 526.164 179.409 C 525.830 183.609, 526.019 184.057, 528.539 185.015 C 530.045 185.587, 531.493 185.840, 531.757 185.577 C 532.020 185.313, 531.058 184.802, 529.618 184.440 C 527.384 183.880, 527 183.240, 527 180.085 C 527 176.980, 527.442 176.212, 529.750 175.299 C 532.241 174.315, 531.959 174.203, 526.750 174.106 C 523.587 174.048, 521 174.439, 521 174.975 M 538 175 C 538 175.550, 538.432 176, 538.961 176 C 539.490 176, 540.085 179.713, 540.284 184.250 L 540.646 192.500 540.573 183.788 L 540.500 175.075 547 174.734 L 553.500 174.392 545.750 174.196 C 541.119 174.079, 538 174.403, 538 175 M 556 174.975 C 556 175.511, 557.237 175.701, 558.750 175.398 L 561.500 174.845 561.427 183.673 L 561.354 192.500 561.716 184.250 C 561.915 179.713, 562.510 176, 563.039 176 C 563.568 176, 564 175.550, 564 175 C 564 174.450, 562.200 174, 560 174 C 557.800 174, 556 174.439, 556 174.975 M 596 174.827 C 596 175.282, 597.237 175.471, 598.750 175.248 C 601.420 174.855, 601.500 174.981, 601.500 179.581 C 601.500 182.615, 601.958 184.414, 602.775 184.584 C 603.476 184.730, 603.589 184.621, 603.025 184.342 C 602.461 184.062, 602 182.108, 602 180 C 602 176.728, 602.403 176.020, 604.750 175.162 C 607.167 174.279, 606.805 174.148, 601.750 174.079 C 598.587 174.036, 596 174.372, 596 174.827 M 649 175 C 649 175.550, 649.490 176, 650.089 176 C 650.791 176, 651.057 178.133, 650.839 182.002 C 650.652 185.303, 650.876 188.003, 651.335 188.002 C 651.795 188.001, 652.020 185.074, 651.835 181.498 C 651.635 177.606, 651.901 174.996, 652.500 174.996 C 653.940 174.995, 653.158 193.254, 651.673 194.315 C 650.870 194.888, 650.973 195.024, 652 194.745 C 653.167 194.429, 653.564 192.301, 653.788 185.169 C 653.946 180.126, 654.508 176, 655.038 176 C 655.567 176, 656 175.550, 656 175 C 656 174.450, 654.425 174, 652.500 174 C 650.575 174, 649 174.450, 649 175 M 671 175 C 671 175.550, 671.490 176, 672.089 176 C 672.791 176, 673.057 178.133, 672.839 182.002 C 672.652 185.303, 672.876 188.003, 673.335 188.002 C 673.795 188.001, 674.020 185.074, 673.835 181.498 C 673.635 177.606, 673.901 174.996, 674.500 174.996 C 675.940 174.995, 675.158 193.254, 673.673 194.315 C 672.870 194.888, 672.973 195.024, 674 194.745 C 675.167 194.429, 675.564 192.301, 675.788 185.169 C 675.946 180.126, 676.508 176, 677.038 176 C 677.567 176, 678 175.550, 678 175 C 678 174.450, 676.425 174, 674.500 174 C 672.575 174, 671 174.450, 671 175 M 680 174.739 C 680 175.193, 683.217 175.384, 687.148 175.161 C 694.028 174.773, 694.276 174.837, 693.742 176.879 C 693.437 178.045, 693.626 179, 694.163 179 C 694.700 179, 694.995 177.988, 694.820 176.750 C 694.526 174.685, 693.903 174.476, 687.250 174.206 C 683.263 174.045, 680 174.284, 680 174.739 M 715 174.941 C 715 175.459, 715.520 176.203, 716.155 176.595 C 716.853 177.027, 717.038 176.871, 716.624 176.201 C 716.156 175.443, 718.083 174.982, 722.720 174.742 L 729.500 174.392 722.250 174.196 C 718.248 174.088, 715 174.422, 715 174.941 M 379.947 175.738 C 381.843 175.968, 384.005 176.908, 384.752 177.828 C 385.942 179.293, 385.975 179.221, 385.020 177.250 C 384.154 175.462, 383.167 175.033, 380.215 175.160 L 376.500 175.320 379.947 175.738 M 439.711 175.716 C 441.734 176.091, 441.951 176.797, 442.275 184.066 L 442.629 192.006 442.565 183.753 C 442.501 175.660, 442.451 175.498, 440 175.404 C 437.906 175.323, 437.859 175.373, 439.711 175.716 M 445.422 176.344 C 445.138 177.083, 445.063 181.020, 445.254 185.094 L 445.603 192.500 445.801 184.316 C 445.998 176.215, 446.028 176.129, 448.750 175.716 L 451.500 175.300 448.719 175.150 C 447.189 175.067, 445.705 175.605, 445.422 176.344 M 685.334 184.500 C 685.331 191.488, 685.473 192.419, 685.971 188.663 C 686.323 186.002, 686.325 181.952, 685.975 179.663 C 685.531 176.759, 685.337 178.221, 685.334 184.500 M 321.196 185.750 L 321.392 193.500 321.742 186.720 C 321.998 181.769, 322.417 180.134, 323.296 180.662 C 324.027 181.100, 323.961 180.719, 323.128 179.692 C 322.373 178.761, 321.585 178, 321.378 178 C 321.170 178, 321.088 181.488, 321.196 185.750 M 478.519 180.969 C 478.152 181.563, 478.396 181.926, 479.062 181.775 C 480.950 181.346, 482.133 186.735, 480.305 187.436 C 479.488 187.750, 478.441 187.773, 477.979 187.487 C 477.516 187.201, 476.875 187.394, 476.553 187.915 C 475.486 189.641, 478.051 190.197, 480.295 188.726 C 481.898 187.676, 482.476 186.350, 482.406 183.890 C 482.309 180.480, 479.927 178.690, 478.519 180.969 M 512.843 181.028 C 511.827 181.621, 511.386 182.762, 511.704 183.977 C 512.173 185.771, 512.418 185.821, 514.299 184.503 C 518.243 181.741, 516.942 178.635, 512.843 181.028 M 552.732 192.084 C 553.255 194.082, 552.961 194.154, 545.636 193.834 C 541.434 193.650, 537.996 193.856, 537.998 194.292 C 537.999 194.728, 541.487 194.953, 545.750 194.792 C 552.922 194.522, 553.524 194.332, 553.820 192.250 C 553.995 191.012, 553.700 190, 553.163 190 C 552.626 190, 552.432 190.938, 552.732 192.084 M 569.733 192.088 C 570.255 194.082, 569.961 194.160, 563.137 193.838 C 559.209 193.652, 555.997 193.857, 555.998 194.294 C 555.999 194.730, 559.263 194.955, 563.250 194.794 C 569.903 194.524, 570.526 194.315, 570.820 192.250 C 570.995 191.012, 570.700 190, 570.163 190 C 569.626 190, 569.433 190.939, 569.733 192.088 M 698.136 192.250 C 698.018 194.646, 698.354 194.982, 700.750 194.864 C 703.014 194.752, 703.113 194.652, 701.311 194.302 C 700.048 194.057, 698.943 192.952, 698.698 191.689 C 698.348 189.887, 698.248 189.986, 698.136 192.250 M 32.958 195.250 C 37.102 199.665, 38 200.459, 38 199.708 C 38 199.548, 35.862 197.410, 33.250 194.958 L 28.500 190.500 32.958 195.250 M 53.312 194.115 C 54.540 194.829, 56.314 194.853, 58.812 194.188 C 62.485 193.211, 62.478 193.206, 57 193.134 C 52.688 193.077, 51.892 193.289, 53.312 194.115 M 521 194.250 C 521 194.662, 522.800 195, 525 195 C 527.200 195, 529 194.662, 529 194.250 C 529 193.838, 527.200 193.500, 525 193.500 C 522.800 193.500, 521 193.838, 521 194.250 M 596 194.250 C 596 194.662, 597.800 195, 600 195 C 602.200 195, 604 194.662, 604 194.250 C 604 193.838, 602.200 193.500, 600 193.500 C 597.800 193.500, 596 193.838, 596 194.250 M 679.999 194.250 C 680 194.662, 683.487 194.933, 687.750 194.850 C 695.638 194.698, 694.704 194.300, 685.249 193.786 C 682.362 193.629, 679.999 193.838, 679.999 194.250 M 64 195 C 62.910 195.704, 63.730 195.969, 67 195.969 C 70.270 195.969, 71.090 195.704, 70 195 C 69.175 194.467, 67.825 194.031, 67 194.031 C 66.175 194.031, 64.825 194.467, 64 195 M 718.776 194.733 C 721.128 194.945, 724.728 194.942, 726.776 194.727 C 728.824 194.512, 726.900 194.339, 722.500 194.343 C 718.100 194.346, 716.424 194.522, 718.776 194.733 M 51 198 L 44.500 198.655 51.500 198.757 C 55.350 198.813, 59.400 198.473, 60.500 198 C 62.304 197.225, 62.256 197.151, 60 197.243 C 58.625 197.299, 54.575 197.640, 51 198 M 89.500 202 C 89.840 202.550, 92.679 202.993, 95.809 202.985 C 99.852 202.974, 101.066 202.689, 100 202 C 97.980 200.694, 88.693 200.694, 89.500 202 M 106 203 C 106 203.550, 107.323 204, 108.941 204 C 110.559 204, 112.160 203.550, 112.500 203 C 112.868 202.405, 111.677 202, 109.559 202 C 107.602 202, 106 202.450, 106 203 M 44.965 204.542 C 42.964 206.953, 45.109 208.169, 50.610 207.741 L 55.500 207.360 50.250 207.180 C 44.918 206.997, 44.045 206.355, 46.200 204.200 C 46.860 203.540, 47.140 203, 46.822 203 C 46.505 203, 45.669 203.694, 44.965 204.542 M 117.461 204.064 C 117.013 204.788, 118.031 204.905, 120.652 204.431 C 125.758 203.507, 126.139 203, 121.726 203 C 119.741 203, 117.822 203.479, 117.461 204.064 M 126.500 205 C 123.936 205.653, 124.262 205.781, 128.750 205.882 C 131.662 205.947, 134 205.555, 134 205 C 134 203.869, 130.944 203.869, 126.500 205 M 68 206 L 62.500 206.674 69.250 206.837 C 73.192 206.932, 76 206.584, 76 206 C 76 205.450, 75.438 205.073, 74.750 205.163 C 74.063 205.253, 71.025 205.629, 68 206 M 135.083 205.372 C 136.254 206.416, 145 207.024, 145 206.061 C 145 205.450, 142.810 205, 139.833 205 C 136.992 205, 134.854 205.167, 135.083 205.372 M 70.250 209.728 C 72.313 209.944, 75.688 209.944, 77.750 209.728 C 79.813 209.513, 78.125 209.336, 74 209.336 C 69.875 209.336, 68.188 209.513, 70.250 209.728 M 187.750 209.706 C 188.988 209.944, 191.012 209.944, 192.250 209.706 C 193.488 209.467, 192.475 209.272, 190 209.272 C 187.525 209.272, 186.512 209.467, 187.750 209.706 M 104.500 213 C 102.957 213.663, 103.484 213.875, 106.809 213.930 C 109.443 213.973, 110.878 213.611, 110.500 213 C 109.765 211.811, 107.267 211.811, 104.500 213 M 82.292 213.742 C 86.027 213.935, 91.877 213.934, 95.292 213.739 C 98.706 213.545, 95.650 213.387, 88.500 213.389 C 81.350 213.390, 78.556 213.550, 82.292 213.742 M 215.966 218.750 L 210.500 224.500 216.250 219.034 C 221.592 213.956, 222.458 213, 221.716 213 C 221.560 213, 218.972 215.588, 215.966 218.750 M 174 230 C 172.887 230.720, 173.481 230.973, 176.309 230.985 C 178.597 230.994, 179.871 230.601, 179.500 230 C 178.719 228.736, 175.956 228.736, 174 230 M 163.719 238.750 C 164.280 240.247, 164.144 240.313, 162.776 239.201 C 161.674 238.305, 160.972 238.236, 160.515 238.976 C 160.150 239.567, 160.222 239.985, 160.676 239.906 C 161.129 239.828, 161.725 239.851, 162 239.958 C 162.275 240.065, 163.282 240.303, 164.237 240.486 C 165.661 240.759, 165.790 240.476, 164.952 238.910 C 163.671 236.517, 162.842 236.410, 163.719 238.750 M 106.096 242.981 C 106.974 243.501, 109.674 244.168, 112.096 244.462 C 115.200 244.839, 115.762 244.751, 114 244.163 C 109.697 242.727, 104.309 241.921, 106.096 242.981 M 124.484 246.085 C 122.973 246.675, 123.394 246.876, 126.250 246.930 C 128.313 246.968, 130 246.827, 130 246.617 C 130 245.726, 126.313 245.370, 124.484 246.085" stroke="none" fill="#7898b1" fill-rule="evenodd"/><path d="M 119 18.103 C 117.075 19.214, 116.400 19.787, 117.500 19.377 C 118.600 18.967, 122.650 18.376, 126.500 18.065 C 131.711 17.645, 132.861 17.312, 131 16.764 C 126.796 15.525, 122.669 15.986, 119 18.103 M 91.443 26.402 C 90.343 27.173, 87.536 28.317, 85.206 28.945 C 79.715 30.423, 74 33.817, 74 35.599 C 74 36.369, 73.496 37, 72.880 37 C 70.856 37, 63.165 42.462, 62.671 44.250 C 62.405 45.212, 61.491 46, 60.639 46 C 58.403 46, 53.500 51.151, 53.500 53.500 C 53.500 54.978, 52.913 55.438, 51.250 55.262 C 49.864 55.115, 49 55.567, 49 56.439 C 49 57.218, 47.871 58.743, 46.491 59.829 C 43.604 62.099, 37 71.369, 37 73.150 C 37 73.809, 38.042 73.370, 39.314 72.174 C 40.587 70.978, 41.937 70, 42.314 70 C 43.935 70, 42.792 75.357, 40.400 78.972 C 38.970 81.132, 38.011 83.485, 38.269 84.200 C 38.566 85.024, 39.179 84.584, 39.943 83 C 42.001 78.729, 47.640 75.189, 53.566 74.449 C 61.546 73.451, 62.464 74.080, 59.790 78.714 C 58.589 80.796, 56.569 83.892, 55.303 85.594 C 53.883 87.502, 53 90.091, 53 92.344 C 53 94.355, 52.517 96, 51.927 96 C 51.336 96, 51.015 96.788, 51.213 97.750 C 51.411 98.713, 50.937 99.986, 50.160 100.579 C 48.979 101.481, 48.956 102.237, 50.022 105.184 C 50.987 107.853, 51.028 109.480, 50.191 111.883 C 49.582 113.628, 49.325 115.684, 49.620 116.451 C 50.209 117.986, 47.196 119.980, 45.314 119.303 C 43.774 118.749, 40.618 123.562, 41.320 125.393 C 41.618 126.167, 43.690 127.110, 45.925 127.487 C 48.161 127.865, 50.243 128.583, 50.552 129.084 C 50.861 129.584, 53.338 130.950, 56.057 132.120 C 58.776 133.289, 61 134.614, 61 135.064 C 61 136.570, 58.927 137.184, 57.589 136.074 C 56.605 135.257, 55.943 135.364, 55.010 136.488 C 54.320 137.319, 53.437 138, 53.049 138 C 52.130 138, 43.302 132.261, 39.673 129.303 C 36.845 126.998, 33 126.196, 33 127.911 C 33 129.667, 38.830 133.703, 45.397 136.494 C 49.041 138.043, 51.889 139.444, 51.725 139.609 C 50.916 140.417, 35.611 137.004, 34.829 135.841 C 33.071 133.227, 31 129.087, 31 128.185 C 31 127.683, 33.291 124.944, 36.090 122.100 L 41.181 116.929 40.592 108.307 L 40.004 99.685 45.002 95.090 C 51.833 88.809, 51.617 87.510, 43.728 87.461 L 37.467 87.423 37.484 98.238 L 37.500 109.053 34.213 111.628 C 30.586 114.469, 25 124.591, 25 128.322 C 25 131.645, 26.917 136.855, 29.699 141.093 C 31.251 143.457, 31.814 145.338, 31.346 146.593 C 30.042 150.090, 26.644 154, 24.910 154 C 22.797 154, 20.997 149.241, 22.074 146.500 C 23.242 143.525, 23.151 134.487, 21.903 129.531 C 21.035 126.082, 21.149 123.442, 22.453 116.838 C 23.358 112.252, 24.198 106.892, 24.319 104.926 C 24.440 102.961, 25.418 100.036, 26.493 98.426 C 27.568 96.817, 29.198 93.475, 30.115 91 C 31.031 88.525, 32.512 84.813, 33.404 82.750 C 34.327 80.618, 34.590 79, 34.013 79 C 33.456 79, 33 79.812, 33 80.804 C 33 81.797, 31.650 84.737, 30 87.339 C 28.350 89.941, 27 92.504, 27 93.035 C 27 93.566, 26.606 94, 26.125 94 C 25.644 94, 24.963 95.433, 24.613 97.184 C 24.263 98.936, 23.289 101.128, 22.448 102.057 C 21.441 103.170, 20.717 106.770, 20.322 112.623 C 19.992 117.505, 19.152 122.635, 18.454 124.021 C 17.421 126.074, 17.432 127.004, 18.513 129.021 C 20.154 132.086, 19.482 143.649, 17.314 149.634 C 15.946 153.412, 15.989 154.619, 17.818 163.634 C 20.506 176.886, 24.786 185.898, 31.970 193.434 C 35.151 196.770, 38.050 200.467, 38.412 201.649 C 39.296 204.535, 43.430 208.560, 49.517 212.461 C 52.277 214.230, 55.202 216.325, 56.017 217.116 C 61.963 222.883, 82.131 235.598, 91.691 239.606 C 112.950 248.519, 119.172 249.353, 146.691 246.984 C 169.940 244.981, 179.812 242.323, 197.040 233.425 C 207.293 228.130, 216.908 219.024, 230.750 201.500 C 244.196 184.477, 250.184 172.269, 252.330 157.500 C 254.823 140.348, 252.013 104.921, 247.429 95.713 C 246.118 93.081, 244.528 87.906, 243.896 84.213 C 243.263 80.521, 242.046 76.150, 241.191 74.500 L 239.636 71.500 238.999 74 C 238.649 75.375, 238.952 77.937, 239.672 79.694 C 240.391 81.451, 240.723 83.557, 240.409 84.375 C 240.096 85.194, 240.743 87.131, 241.849 88.681 C 244.391 92.246, 247.782 104.531, 248.718 113.562 C 249.944 125.402, 249.655 149.508, 248.267 151.179 C 247.574 152.014, 247.100 155.036, 247.184 158.082 C 247.267 161.062, 246.922 166.419, 246.417 169.987 C 245.667 175.293, 245.136 176.541, 243.500 176.840 C 241.046 177.290, 238 179.882, 238 181.520 C 238 183.643, 234.040 187.855, 231.735 188.183 C 230.360 188.379, 228.906 189.785, 227.926 191.865 C 225.331 197.375, 220.491 198.451, 219.808 193.669 C 219.613 192.303, 218.105 190.852, 215.708 189.726 C 213.622 188.746, 211.705 187.395, 211.447 186.722 C 211.189 186.050, 211.888 180.552, 212.999 174.504 L 215.019 163.508 210.354 149.210 L 205.690 134.912 209.021 126.206 C 210.853 121.418, 212.448 115.709, 212.565 113.521 C 212.863 107.977, 214.947 106.936, 218.971 110.322 C 222.653 113.420, 223.733 113.576, 226.777 111.443 C 228.538 110.210, 229 108.910, 229 105.187 C 229 98.901, 230.348 94.563, 233.447 90.881 L 236.013 87.831 233.853 86.082 C 232.232 84.769, 231.573 82.896, 231.215 78.581 C 230.752 73.002, 230.809 72.840, 233.094 73.165 C 236.995 73.720, 236.604 70.554, 232.470 68.115 C 228.581 65.820, 228.305 63.699, 231.828 63.180 C 234.339 62.811, 234.913 59, 232.458 59 C 231.610 59, 227.562 56.075, 223.463 52.500 C 219.364 48.925, 215.783 46, 215.505 46 C 213.840 46, 215.778 48.267, 221.462 52.969 C 225.016 55.909, 227.689 58.693, 227.403 59.157 C 226.503 60.614, 222.628 60.071, 219.256 58.015 C 217.332 56.842, 216.112 56.524, 216.256 57.235 C 216.412 57.998, 214.421 58.669, 210.770 59.082 C 203.900 59.861, 195.719 64.446, 189.819 70.826 C 187.619 73.205, 185.656 74.989, 185.457 74.790 C 184.753 74.086, 193.982 63.463, 197.437 61 C 199.367 59.625, 200.957 57.673, 200.972 56.662 C 200.996 55.059, 200.456 54.910, 196.750 55.493 C 188.451 56.798, 185.238 57.982, 184.730 59.923 C 184.456 60.972, 183.178 61.981, 181.891 62.165 C 180.603 62.349, 179.089 63.428, 178.525 64.563 C 176.829 67.977, 169.212 76.153, 168.620 75.195 C 167.652 73.628, 172.834 58.593, 175.980 53.844 C 177.649 51.323, 180.812 48.016, 183.008 46.495 C 187.488 43.390, 188.047 42, 184.816 42 C 178.581 42, 168.434 50.326, 163.914 59.151 C 159.528 67.714, 156.499 83.955, 159 85.500 C 159.550 85.840, 160 86.991, 160 88.059 C 160 90.458, 155.865 90.747, 153.984 88.481 C 153.132 87.454, 151.715 87.139, 149.612 87.510 C 146.924 87.983, 144.250 86.606, 130 77.413 C 120.925 71.558, 113.116 66.413, 112.646 65.980 C 110.892 64.362, 113.824 61.916, 123.523 56.907 C 136.070 50.426, 146.725 44.255, 147.483 43.028 C 148.333 41.652, 138.583 45.171, 121.500 52.405 C 101.095 61.046, 96.026 63, 94.022 63 C 93.080 63, 91.495 63.900, 90.500 65 C 88.748 66.936, 88.753 67, 90.664 67 C 91.749 67, 95 66.298, 97.889 65.440 C 106.775 62.801, 110.942 64.380, 107.221 68.975 C 105.656 70.909, 105.083 71.069, 103.429 70.036 C 101.823 69.033, 100.195 69.268, 94.175 71.371 L 86.869 73.924 85.837 70.962 C 85.269 69.333, 84.173 68, 83.402 68 C 81.281 68, 81.723 66.306, 84 65.710 C 85.225 65.390, 86 64.346, 86 63.018 C 86 61.173, 86.483 60.898, 89.235 61.175 C 91.818 61.434, 92.546 61.097, 92.850 59.500 C 93.060 58.400, 93.543 57.275, 93.924 57 C 94.304 56.725, 95.328 55.458, 96.198 54.184 C 97.602 52.129, 97.616 51.537, 96.320 48.940 C 94.669 45.631, 94.880 41.861, 96.750 41.245 C 97.569 40.975, 98 41.897, 98 43.917 C 98 45.612, 98.450 47, 99 47 C 100.559 47, 100.175 40.254, 98.414 36.700 C 97.542 34.940, 95.630 32.445, 94.164 31.156 C 92.655 29.828, 91.980 28.620, 92.608 28.370 C 93.218 28.127, 94.568 27.283, 95.608 26.496 C 97.450 25.102, 97.446 25.063, 95.473 25.032 C 94.357 25.014, 92.544 25.631, 91.443 26.402 M 181.259 26.085 C 183.951 27.653, 190 30.082, 190 29.595 C 190 28.637, 183.137 25.002, 181.382 25.030 C 179.618 25.059, 179.610 25.125, 181.259 26.085 M 104.625 30.125 C 104.281 31.844, 104 35.759, 104 38.825 C 104 45.944, 105.572 44.581, 106.682 36.500 C 107.382 31.399, 107.833 30.453, 109.692 30.188 C 111.613 29.915, 111.917 30.400, 112.189 34.188 C 112.360 36.560, 112.950 38.500, 113.500 38.500 C 114.823 38.500, 115.328 34.561, 114.541 30.369 C 113.939 27.160, 113.704 27, 109.580 27 C 105.530 27, 105.210 27.202, 104.625 30.125 M 120.073 30.635 C 117.387 34.049, 117.431 34.343, 121.077 37.411 C 124.930 40.653, 126.396 40.716, 125.616 37.604 C 125.184 35.883, 125.505 35.010, 126.757 34.504 C 128.315 33.874, 128.269 33.711, 126.328 32.961 C 124.763 32.357, 124.306 31.545, 124.694 30.061 C 125.480 27.056, 122.607 27.412, 120.073 30.635 M 134.148 33.300 C 130.165 38.691, 129.146 41, 130.750 41 C 131.162 41, 132.960 39.313, 134.744 37.250 C 137.850 33.660, 138.052 33.581, 139.458 35.392 C 140.267 36.432, 141.107 37.782, 141.327 38.392 C 141.547 39.001, 142.001 39.250, 142.336 38.944 C 143.157 38.195, 141.352 31.864, 139.657 29.546 C 138.389 27.812, 138.012 28.070, 134.148 33.300 M 151.750 30.484 C 148.221 33.590, 148.284 35.220, 152.059 38.396 C 154.972 40.848, 155.235 40.892, 157.599 39.343 C 161.783 36.602, 162.370 34.420, 159.845 31.004 C 157.174 27.391, 155.393 27.277, 151.750 30.484 M 171.961 32.603 C 171.174 34.672, 170.647 35.047, 169.763 34.163 C 166.685 31.085, 166.063 33.993, 169 37.727 C 170.100 39.126, 171.018 41.447, 171.039 42.885 L 171.078 45.500 172.412 42.500 C 173.145 40.850, 174.927 38.409, 176.373 37.076 C 179.498 34.192, 179.774 32.619, 177 33.500 C 175.603 33.943, 175 33.680, 175 32.626 C 175 29.859, 173.010 29.844, 171.961 32.603 M 80.704 32.596 C 76.309 34.979, 74.469 41.379, 77.868 42.458 C 82.065 43.790, 90 37.774, 90 33.260 C 90 31.369, 89.470 31.007, 86.750 31.040 C 84.963 31.062, 82.242 31.762, 80.704 32.596 M 153.441 33.096 C 153.068 33.699, 153.418 34.846, 154.218 35.646 C 155.490 36.918, 155.828 36.912, 156.922 35.594 C 157.610 34.765, 157.882 33.618, 157.527 33.044 C 156.682 31.676, 154.299 31.707, 153.441 33.096 M 196 32.505 C 196 32.822, 197.002 34.436, 198.226 36.092 C 200.129 38.666, 200.238 39.242, 198.976 40.062 C 198.164 40.590, 195.813 40.752, 193.750 40.423 C 191.688 40.094, 190 40.089, 190 40.413 C 190 40.737, 193.018 42.429, 196.707 44.171 C 200.396 45.914, 205.233 48.990, 207.457 51.005 C 215.176 58.003, 215.457 55.937, 207.776 48.662 C 202.066 43.254, 200.345 41.055, 201.175 40.225 C 202.005 39.395, 203.065 39.499, 205.242 40.625 C 209.740 42.951, 209.529 41.673, 204.775 37.797 C 200.250 34.107, 196 31.545, 196 32.505 M 72 48.607 C 65.125 50.451, 60.874 53.371, 52.833 61.778 L 46.500 68.399 49.817 69.363 C 52.043 70.011, 55.143 69.954, 59.238 69.193 C 67.673 67.624, 68.955 66, 61.759 66 C 58.656 66, 55.874 65.605, 55.575 65.122 C 54.872 63.984, 63.974 55.460, 66.875 54.540 C 68.285 54.092, 70.005 54.428, 71.577 55.459 C 72.941 56.352, 74.447 56.842, 74.923 56.547 C 75.400 56.253, 76.026 56.624, 76.313 57.373 C 76.775 58.577, 82 60.358, 82 59.312 C 82 59.086, 81.283 57.515, 80.407 55.821 C 78.904 52.913, 78.933 52.582, 80.937 49.871 L 83.060 47 80.280 47.066 C 78.751 47.102, 75.025 47.795, 72 48.607 M 210.748 64.427 C 203.277 67.093, 196.823 73.192, 185.726 88.075 C 181.130 94.240, 178.584 96.746, 176 97.648 C 165.210 101.414, 158.438 103, 153.148 103 C 145.678 103, 133.027 100.523, 126.500 97.783 C 122.685 96.181, 119.367 95.680, 112.500 95.671 C 99.738 95.654, 95.587 97.064, 89.250 103.568 C 83.844 109.118, 82.894 111, 85.500 111 C 87.296 111, 87.350 111.699, 85.876 115.927 C 84.138 120.910, 85.931 121.409, 91.457 117.481 C 96.640 113.796, 100 113.017, 100 115.500 C 100 117.369, 102.028 117.431, 104.481 115.637 C 106.249 114.345, 106.198 114.203, 103.496 112.887 C 99.256 110.822, 99.449 109.482, 104.250 107.649 C 109.198 105.759, 111.616 105.570, 112.502 107.003 C 112.893 107.635, 113.758 107.665, 114.845 107.083 C 117.272 105.784, 125.723 108.821, 130.740 112.794 C 135.262 116.375, 136.630 116.648, 139.610 114.560 C 142.458 112.566, 147.875 114.510, 151.512 118.832 C 154.596 122.497, 158.273 122.832, 158.840 119.500 C 159.349 116.509, 167.614 110, 170.903 110 C 172.704 110, 174.584 108.973, 176.293 107.056 C 178.762 104.284, 179.080 104.193, 181.708 105.499 C 183.476 106.377, 186.051 106.676, 188.729 106.314 C 193.166 105.714, 193.667 104, 189.406 104 C 187.215 104, 187.057 103.763, 188.033 101.938 C 189.039 100.059, 189.995 99.887, 198.818 99.999 C 214.449 100.198, 214.850 100.142, 214.250 97.847 C 213.852 96.327, 213.169 95.992, 211.386 96.439 C 209.438 96.928, 208.940 96.562, 208.419 94.263 C 206.379 85.261, 206.526 85.514, 203.135 85.182 C 199.024 84.781, 197.930 82.285, 200.833 79.934 C 202.025 78.969, 203.006 77.802, 203.012 77.340 C 203.029 76.237, 209.610 71.990, 211.236 72.033 C 213.250 72.086, 216.882 75.559, 218 78.501 C 218.725 80.406, 219.506 81.020, 220.648 80.582 C 221.538 80.240, 223.843 80.890, 225.769 82.026 L 229.270 84.092 228.597 79.296 C 228.226 76.658, 227.655 72.328, 227.327 69.674 C 226.844 65.766, 226.269 64.673, 224.300 63.924 C 220.905 62.633, 215.179 62.845, 210.748 64.427 M 108.218 73.154 C 108.737 74.712, 110.974 74.984, 111.053 73.500 C 111.082 72.950, 110.355 72.345, 109.438 72.154 C 108.395 71.939, 107.938 72.313, 108.218 73.154 M 389.698 73.680 C 389.364 74.220, 387.020 80.251, 384.490 87.081 C 381.683 94.661, 379.034 100.173, 377.695 101.228 C 375.539 102.925, 375.594 102.956, 380.750 102.978 C 385.959 103, 387.822 101.710, 384.018 100.715 C 382.266 100.257, 382.161 99.836, 383.116 97.098 C 384.156 94.114, 384.409 94, 390 94 C 395.611 94, 395.841 94.105, 396.902 97.149 C 397.506 98.881, 398 100.404, 398 100.533 C 398 100.661, 396.988 101.122, 395.750 101.556 C 393.957 102.185, 394.486 102.424, 398.357 102.732 C 403.792 103.164, 405.102 102.578, 402.805 100.740 C 401.954 100.058, 399.300 94.163, 396.908 87.640 C 392.342 75.187, 390.714 72.035, 389.698 73.680 M 667.034 74.702 C 662.289 77.163, 659.847 81.754, 659.788 88.325 C 659.708 97.247, 664.160 103.089, 671.192 103.288 C 679.555 103.525, 685 97.696, 685 88.508 C 685 76.809, 676.123 69.988, 667.034 74.702 M 345.500 75 C 345.840 75.550, 346.766 76, 347.559 76 C 348.737 76, 349 78.283, 349 88.500 C 349 98.717, 348.737 101, 347.559 101 C 346.766 101, 345.840 101.450, 345.500 102 C 345.116 102.621, 346.990 103, 350.441 103 C 353.498 103, 356 102.550, 356 102 C 356 101.450, 355.100 101, 354 101 C 352.106 101, 352 100.333, 352 88.456 L 352 75.912 359.250 76.206 L 366.500 76.500 366.782 88.335 C 367.049 99.514, 366.952 100.200, 365.032 100.702 C 361.106 101.728, 363.057 103, 368.559 103 C 372.010 103, 373.884 102.621, 373.500 102 C 373.160 101.450, 372.234 101, 371.441 101 C 370.263 101, 370 98.717, 370 88.500 C 370 78.283, 370.263 76, 371.441 76 C 372.234 76, 373.160 75.550, 373.500 75 C 373.901 74.351, 368.991 74, 359.500 74 C 350.009 74, 345.099 74.351, 345.500 75 M 407.500 75 C 407.840 75.550, 408.766 76, 409.559 76 C 410.726 76, 411 78.079, 411 86.918 C 411 98.581, 410.562 101, 408.452 101 C 407.718 101, 406.840 101.450, 406.500 102 C 406.116 102.621, 407.990 103, 411.441 103 C 414.498 103, 417 102.550, 417 102 C 417 101.450, 416.100 101, 415 101 C 413.117 101, 413.002 100.344, 413.032 89.750 L 413.063 78.500 415.282 81.085 C 416.502 82.507, 420.636 88.020, 424.469 93.335 C 428.302 98.651, 431.790 103, 432.219 103 C 432.649 103, 433 101.044, 433 98.654 C 433 87.621, 434.329 76, 435.591 76 C 436.301 76, 437.160 75.550, 437.500 75 C 437.887 74.374, 435.943 74.025, 432.309 74.068 C 427.390 74.125, 426.845 74.302, 428.750 75.220 C 430.858 76.237, 431 76.929, 431 86.153 C 431 91.569, 430.848 96, 430.663 96 C 430.477 96, 426.804 91.050, 422.500 85 C 414.832 74.221, 414.596 74, 410.778 74 C 408.435 74, 407.128 74.399, 407.500 75 M 443.250 75.392 C 444.746 76.528, 445 78.466, 445 88.744 C 445 100.302, 444.913 100.798, 442.750 101.588 C 441.253 102.134, 443.987 102.520, 450.913 102.741 C 456.640 102.924, 461.643 102.720, 462.031 102.287 C 463.170 101.014, 464.030 95, 463.073 95 C 462.590 95, 461.725 96.350, 461.150 98 C 460.143 100.888, 459.877 101, 454.052 101 L 448 101 448 95 L 448 89 453.500 89 C 456.525 89, 459 88.550, 459 88 C 459 87.450, 456.525 87, 453.500 87 L 448 87 448 81.500 L 448 76 453.402 76 C 458.506 76, 458.862 76.166, 459.850 79 C 461.279 83.099, 462 82.764, 462 78 L 462 74 451.750 74.032 C 443.011 74.059, 441.758 74.259, 443.250 75.392 M 468.750 75.220 C 470.903 76.259, 471 76.837, 471 88.653 C 471 98.961, 470.752 101, 469.500 101 C 468.675 101, 468 101.450, 468 102 C 468 102.550, 470.250 103, 473 103 C 478.038 103, 479.734 101.687, 475.968 100.702 C 474.048 100.200, 473.951 99.514, 474.218 88.335 L 474.500 76.500 481.750 76.206 L 489 75.912 489 88.456 C 489 98.711, 488.737 101, 487.559 101 C 486.766 101, 485.840 101.450, 485.500 102 C 485.116 102.621, 486.990 103, 490.441 103 C 493.498 103, 496 102.550, 496 102 C 496 101.450, 495.100 101, 494 101 C 492.107 101, 492 100.333, 492 88.500 C 492 78.283, 492.263 76, 493.441 76 C 494.234 76, 495.160 75.550, 495.500 75 C 495.902 74.349, 490.944 74.024, 481.309 74.068 C 469.909 74.120, 467.018 74.385, 468.750 75.220 M 502.750 75.674 C 504.861 77.147, 505 77.951, 505 88.716 C 505 99.346, 504.853 100.226, 503 100.710 C 499.262 101.688, 500.981 103, 506 103 C 508.750 103, 511 102.550, 511 102 C 511 101.450, 510.325 101, 509.500 101 C 508.247 101, 508 98.944, 508 88.500 C 508 78.283, 508.263 76, 509.441 76 C 510.234 76, 511.160 75.550, 511.500 75 C 511.886 74.375, 509.939 74.020, 506.309 74.052 C 500.736 74.103, 500.591 74.169, 502.750 75.674 M 516.586 74.861 C 516.293 75.335, 518.054 78.373, 520.500 81.611 C 522.946 84.850, 524.959 87.953, 524.973 88.507 C 524.988 89.061, 522.975 91.983, 520.500 95 C 518.025 98.017, 516 101.067, 516 101.777 C 516 102.769, 518.488 103.002, 526.750 102.784 L 537.500 102.500 537.706 98 L 537.912 93.500 536.558 96.490 C 535.813 98.134, 534.145 99.777, 532.852 100.140 C 529.539 101.071, 519.995 101.152, 520.027 100.250 C 520.041 99.838, 522.066 96.834, 524.527 93.576 C 526.987 90.317, 529 87.345, 529 86.970 C 529 86.594, 527.425 84.225, 525.500 81.704 C 523.575 79.183, 522 76.868, 522 76.560 C 522 76.252, 524.474 76, 527.497 76 C 532.741 76, 533.060 76.150, 534.416 79.250 L 535.837 82.500 535.918 78.250 L 536 74 526.559 74 C 521.366 74, 516.878 74.388, 516.586 74.861 M 540.721 77.250 C 540.058 81.502, 541.595 83.119, 542.478 79.099 C 543.098 76.276, 543.509 76, 547.079 76 L 551 76 551 88.500 C 551 98.717, 550.737 101, 549.559 101 C 548.766 101, 547.840 101.450, 547.500 102 C 547.116 102.621, 548.990 103, 552.441 103 C 557.923 103, 559.897 101.729, 556 100.710 C 554.139 100.224, 554 99.346, 554 88.094 L 554 76 558.025 76 C 561.697 76, 562.103 76.263, 562.650 79 C 563.515 83.323, 565 82.691, 565 78 L 565 74 553.113 74 L 541.227 74 540.721 77.250 M 568.750 75.220 C 570.903 76.259, 571 76.837, 571 88.653 C 571 98.961, 570.752 101, 569.500 101 C 568.675 101, 568 101.450, 568 102 C 568 102.550, 570.250 103, 573 103 C 578.019 103, 579.738 101.688, 576 100.710 C 574.301 100.266, 574 99.346, 574 94.594 L 574 89 581.500 89 L 589 89 589 95 C 589 99.557, 588.654 101, 587.559 101 C 586.766 101, 585.840 101.450, 585.500 102 C 585.116 102.621, 586.990 103, 590.441 103 C 593.498 103, 596 102.550, 596 102 C 596 101.450, 595.100 101, 594 101 C 592.108 101, 592 100.333, 592 88.617 C 592 76.666, 592.079 76.207, 594.250 75.476 C 596.425 74.743, 596.409 74.704, 593.768 74.294 C 592.265 74.061, 589.565 74.056, 587.768 74.284 C 584.803 74.658, 584.709 74.768, 586.750 75.465 C 588.713 76.135, 589 76.927, 589 81.660 L 589 87.088 581.750 86.794 L 574.500 86.500 574.183 82.055 C 573.920 78.372, 574.263 77.304, 576.183 75.827 C 578.482 74.058, 578.453 74.045, 572.500 74.090 C 567.452 74.128, 566.857 74.308, 568.750 75.220 M 602.462 74.938 C 602.823 75.522, 603.794 76, 604.620 76 C 605.804 76, 606.011 76.902, 605.594 80.250 C 605.304 82.588, 604.783 88.041, 604.437 92.369 C 603.909 98.962, 603.498 100.318, 601.904 100.735 C 598.107 101.728, 600.127 103, 605.500 103 C 610.886 103, 613.195 101.451, 608.750 100.820 C 607.513 100.644, 606.545 99.938, 606.600 99.250 C 606.655 98.563, 606.768 93.950, 606.850 89 C 606.933 84.050, 607.382 80, 607.848 80 C 608.315 80, 610.716 84.756, 613.185 90.569 C 615.653 96.383, 618.084 101.203, 618.587 101.281 C 619.089 101.359, 621.750 96.048, 624.500 89.477 L 629.500 77.532 630.141 83.516 C 631.347 94.761, 631.139 101, 629.559 101 C 628.766 101, 627.840 101.450, 627.500 102 C 627.116 102.621, 628.990 103, 632.441 103 C 637.923 103, 639.897 101.729, 636 100.710 C 634.439 100.302, 633.999 99.343, 633.994 96.344 C 633.991 94.230, 633.699 88.787, 633.346 84.250 C 632.790 77.108, 632.917 76, 634.293 76 C 635.167 76, 636.160 75.550, 636.500 75 C 636.876 74.392, 635.420 74, 632.788 74 L 628.459 74 624.050 84.987 C 621.625 91.031, 619.473 95.806, 619.267 95.601 C 619.061 95.395, 616.914 90.563, 614.496 84.863 L 610.098 74.500 605.952 74.188 C 603.214 73.982, 602.028 74.236, 602.462 74.938 M 643.500 75 C 643.840 75.550, 644.766 76, 645.559 76 C 646.733 76, 647 78.203, 647 87.878 C 647 99.064, 646.869 99.847, 644.750 101.326 C 642.590 102.832, 642.731 102.897, 648.250 102.948 C 651.452 102.977, 654 102.557, 654 102 C 654 101.450, 653.100 101, 652 101 C 650.107 101, 650 100.333, 650 88.500 C 650 78.283, 650.263 76, 651.441 76 C 652.234 76, 653.160 75.550, 653.500 75 C 653.884 74.379, 651.991 74, 648.500 74 C 645.009 74, 643.116 74.379, 643.500 75 M 113 75.784 C 113 76.729, 118.358 80, 119.904 80 C 122.131 80, 120.896 78.321, 117.466 76.685 C 113.466 74.778, 113 74.684, 113 75.784 M 668.302 76.012 C 664.596 77.504, 662.734 82.486, 663.193 89.683 C 663.528 94.947, 664.062 96.517, 666.271 98.725 C 669.246 101.701, 674.792 102.246, 677.684 99.848 C 681.744 96.481, 683.151 87.692, 680.606 81.599 C 678.240 75.936, 673.658 73.855, 668.302 76.012 M 106.161 77.983 C 106.584 79.251, 118.534 85.940, 120.450 85.980 C 122.064 86.014, 119.869 84.471, 112.612 80.471 C 108.824 78.382, 105.921 77.263, 106.161 77.983 M 77.197 81.476 C 75.989 83.013, 75 84.885, 75 85.637 C 75 86.389, 73.675 90.828, 72.055 95.502 C 70.436 100.176, 69.501 104, 69.978 104 C 70.455 104, 71.361 102.313, 71.992 100.250 C 73.488 95.361, 74.631 92.597, 77.723 86.401 C 80.762 80.309, 80.445 77.347, 77.197 81.476 M 90 79.678 C 82.937 80.823, 79.296 85.831, 75.471 99.659 C 74.125 104.522, 73.019 108.859, 73.012 109.298 C 72.997 110.277, 80.012 105.510, 86.040 100.445 C 93.089 94.521, 98.150 92.714, 109.500 92.069 C 120.893 91.421, 121.353 92.340, 105.346 83.755 C 96.799 79.171, 95.406 78.801, 90 79.678 M 387.606 84.250 C 386.581 87.138, 385.527 90.063, 385.264 90.750 C 384.920 91.651, 386.236 92, 389.976 92 C 393.736 92, 395.025 91.656, 394.652 90.750 C 394.369 90.063, 393.350 87.138, 392.386 84.250 C 391.423 81.362, 390.373 79, 390.052 79 C 389.732 79, 388.631 81.362, 387.606 84.250 M 131.240 84.250 C 131.463 84.938, 133.491 86.429, 135.747 87.565 C 140.864 90.140, 143.127 91.985, 142.472 93.045 C 142.194 93.495, 142.974 94.569, 144.206 95.432 C 146.585 97.098, 150 97.543, 150 96.187 C 150 94.957, 145.015 90.560, 140.334 87.661 C 138.043 86.242, 135.879 84.613, 135.525 84.041 C 134.601 82.546, 130.747 82.735, 131.240 84.250 M 66.440 86.451 C 65.557 87.799, 65.010 89.711, 65.224 90.701 C 65.533 92.132, 66.061 91.783, 67.803 89 C 69.007 87.075, 69.994 85.162, 69.996 84.750 C 70.004 83.145, 67.968 84.119, 66.440 86.451 M 69.098 91.149 C 67.767 94.966, 67.750 95.273, 68.902 94.561 C 70.183 93.769, 72.069 88, 71.046 88 C 70.578 88, 69.702 89.417, 69.098 91.149 M 196 88.694 C 194.346 89.285, 192 91.923, 192 93.191 C 192 93.636, 192.852 94, 193.893 94 C 194.934 94, 196.045 94.675, 196.362 95.500 C 196.678 96.325, 197.799 97, 198.852 97 C 201.610 97, 202.217 92.610, 199.816 90.033 C 198.774 88.915, 197.827 88.036, 197.711 88.079 C 197.595 88.122, 196.825 88.399, 196 88.694 M 214 90 C 214 90.550, 214.682 91, 215.515 91 C 216.348 91, 217.874 92.390, 218.907 94.088 C 220.434 96.599, 224.868 100, 226.614 100 C 226.826 100, 227 98.602, 227 96.893 C 227 94.450, 226.656 93.918, 225.393 94.403 C 224.395 94.786, 222.486 93.878, 220.358 92.010 C 216.952 89.019, 214 88.086, 214 90 M 163 95.500 C 163 98.220, 165.052 98.847, 166.854 96.676 C 167.656 95.710, 167.635 95.035, 166.776 94.176 C 164.814 92.214, 163 92.849, 163 95.500 M 200.250 106.723 C 198.463 106.945, 197 107.484, 197 107.921 C 197 108.598, 206.413 114, 207.592 114 C 207.817 114, 208 112.740, 208 111.200 C 208 108.284, 206.358 105.885, 204.550 106.160 C 203.972 106.248, 202.037 106.502, 200.250 106.723 M 56.607 109.582 C 55.561 112.307, 55.941 114.763, 57.500 115.362 C 58.678 115.814, 59 115.085, 59 111.969 C 59 107.954, 57.721 106.678, 56.607 109.582 M 198 113.346 C 198 113.537, 198.732 115.160, 199.627 116.953 C 200.798 119.302, 201.090 121.652, 200.668 125.357 L 200.083 130.500 202.536 126.500 C 205.763 121.239, 205.711 117.704, 202.365 115.073 C 199.995 113.208, 198 112.419, 198 113.346 M 166.667 115.667 C 165.838 116.495, 165.789 120.456, 166.598 121.264 C 167.952 122.619, 170 120.590, 170 117.893 C 170 115.172, 168.298 114.036, 166.667 115.667 M 68.561 121.528 C 65.918 123.640, 65.740 124.133, 66.790 126.438 C 67.709 128.456, 68.679 129, 71.356 129 C 73.226 129, 75.315 128.325, 76 127.500 C 77.062 126.221, 76.781 126, 74.091 126 C 70.541 126, 69.073 123.822, 71.031 121.463 C 73.093 118.978, 71.707 119.014, 68.561 121.528 M 414.914 120.925 C 407.491 123.263, 403.762 129.300, 403.701 139.074 C 403.633 150.148, 409.189 156.522, 418.865 156.469 C 426.091 156.429, 430.158 153.770, 432.541 147.531 C 434.815 141.577, 434.220 131.111, 431.392 127.323 C 427.165 121.661, 420.629 119.123, 414.914 120.925 M 490.500 121.503 C 488.300 122.281, 485.503 124.069, 484.284 125.475 C 477.487 133.319, 479.444 150.689, 487.617 155.063 C 491.706 157.251, 500.278 156.920, 503.677 154.441 C 510.371 149.560, 512.935 137.810, 509.119 129.500 C 506.803 124.455, 504.544 122.484, 499.500 121.105 C 494.709 119.795, 495.416 119.764, 490.500 121.503 M 681.169 120.983 C 676.933 121.997, 672.371 126.346, 670.915 130.756 C 670.293 132.641, 669.957 137.229, 670.167 140.952 C 670.476 146.416, 671.073 148.407, 673.264 151.279 C 679.707 159.727, 693.815 158.233, 698.377 148.619 C 700.680 143.764, 700.549 132.496, 698.137 127.984 C 695.079 122.265, 688.005 119.346, 681.169 120.983 M 297.412 122.143 C 297.193 122.497, 298.136 123.068, 299.507 123.412 L 302 124.038 302 138.544 L 302 153.050 299.250 154.237 L 296.500 155.425 300.250 155.773 C 302.313 155.964, 305.688 155.964, 307.750 155.773 L 311.500 155.425 308.750 154.237 L 306 153.050 306 138.525 L 306 124 314.500 124 L 323 124 323 138.594 C 323 152.346, 322.885 153.217, 321 153.710 C 316.861 154.793, 319.234 156, 325.500 156 C 331.661 156, 334.575 154.505, 329.750 153.820 C 327.548 153.507, 327.494 153.188, 327.223 138.776 L 326.947 124.051 329.473 123.417 C 330.863 123.069, 332 122.494, 332 122.140 C 332 121.300, 297.931 121.303, 297.412 122.143 M 337 121.933 C 337 122.446, 337.900 123.151, 339 123.500 C 340.879 124.096, 341 125.013, 341 138.592 L 341 153.050 338.250 154.275 C 335.873 155.334, 337.251 155.538, 348.422 155.781 C 362.834 156.095, 362.988 156.028, 362.940 149.500 L 362.912 145.500 360.932 149.250 L 358.952 153 351.430 153 L 343.909 153 344.204 146.250 L 344.500 139.500 351.250 139.204 C 355.682 139.010, 358.001 138.495, 358.002 137.704 C 358.003 136.884, 355.851 136.500, 351.252 136.500 L 344.500 136.500 344.500 130.500 L 344.500 124.500 351.266 124.204 L 358.032 123.908 358.645 126.975 C 359.651 132.007, 361 131.482, 361 126.059 L 361 121 349 121 C 342.245 121, 337 121.408, 337 121.933 M 379.429 128.250 C 377.918 132.238, 375.230 139.325, 373.453 144 C 371.310 149.642, 369.514 152.832, 368.112 153.487 C 364.495 155.178, 365.767 156, 372 156 C 375.333 156, 378 155.556, 378 155 C 378 154.450, 377.127 154, 376.059 154 C 374.991 154, 373.861 153.585, 373.548 153.077 C 373.100 152.353, 378.091 136.841, 381.617 128 C 382.029 126.966, 382.614 127.586, 383.502 130 C 392.479 154.420, 392.132 153.153, 389.992 153.712 C 385.911 154.779, 388.204 155.999, 394.250 155.978 C 400.331 155.956, 400.442 155.909, 398.362 154.228 C 397.052 153.169, 393.959 146.402, 390.374 136.750 C 387.156 128.088, 383.995 121, 383.349 121 C 382.703 121, 380.939 124.263, 379.429 128.250 M 440 122.132 C 440 122.481, 440.900 123.002, 442 123.290 C 443.889 123.784, 444 124.654, 444 138.906 C 444 151.382, 443.750 154, 442.559 154 C 441.766 154, 440.840 154.450, 440.500 155 C 440.112 155.628, 442.323 156, 446.441 156 C 452.648 156, 455.596 154.508, 450.750 153.820 C 448.535 153.505, 448.500 153.276, 448.500 139 L 448.500 124.500 457.250 124.211 L 466 123.922 466 138.486 L 466 153.050 463.500 154 C 459.537 155.507, 460.524 156, 467.500 156 C 473.766 156, 476.139 154.793, 472 153.710 C 470.116 153.218, 470 152.346, 470 138.661 C 470 125.013, 470.121 124.096, 472 123.500 C 476.724 122.001, 472.970 121.500, 457 121.499 C 447.650 121.498, 440 121.783, 440 122.132 M 517 121.763 C 517 122.182, 518.013 122.970, 519.250 123.513 C 521.455 124.480, 521.493 124.782, 521.148 138.500 C 520.954 146.200, 520.590 152.838, 520.339 153.250 C 520.087 153.662, 519.009 154, 517.941 154 C 516.873 154, 516 154.450, 516 155 C 516 155.564, 518.833 156, 522.500 156 C 526.167 156, 529 155.564, 529 155 C 529 154.450, 528.086 154, 526.969 154 C 525.851 154, 524.712 153.413, 524.436 152.695 C 524.161 151.977, 524.062 145.807, 524.218 138.985 L 524.500 126.580 535.028 140.966 C 540.818 148.878, 546.046 155.515, 546.645 155.715 C 548.329 156.276, 549 150.916, 549 136.894 L 549 124.038 551.500 123.411 C 556.125 122.250, 554.052 121, 547.500 121 C 540.948 121, 538.875 122.250, 543.500 123.411 C 545.993 124.036, 546 124.073, 546 136.019 C 546 142.609, 545.806 148, 545.568 148 C 545.331 148, 540.759 141.925, 535.408 134.500 L 525.681 121 521.340 121 C 518.953 121, 517 121.343, 517 121.763 M 558 121.837 C 558 122.357, 559.125 123.066, 560.500 123.411 C 562.942 124.023, 563 124.254, 562.991 133.269 C 562.987 138.346, 562.695 144.899, 562.342 147.831 C 561.804 152.316, 561.289 153.342, 559.101 154.294 C 556.518 155.417, 556.527 155.427, 560.250 155.773 C 562.313 155.964, 565.688 155.964, 567.750 155.773 C 571.472 155.427, 571.480 155.416, 568.901 154.294 C 566.625 153.305, 566.221 152.390, 565.651 146.935 C 564.707 137.907, 564.853 127, 565.917 127 C 566.421 127, 566.983 127.423, 567.167 127.940 C 568.113 130.607, 587.610 156, 588.712 156 C 589.709 156, 590 152.407, 590 140.108 L 590 124.217 592.500 123.589 C 597.034 122.452, 595.105 121, 589.059 121 C 582.815 121, 580.270 122.349, 584.507 123.412 C 586.930 124.020, 587 124.288, 587 132.894 C 587 137.765, 587.293 143.217, 587.652 145.009 C 588.098 147.242, 587.946 148.147, 587.166 147.884 C 586.540 147.673, 581.837 141.650, 576.715 134.500 L 567.401 121.500 562.701 121.195 C 560.115 121.028, 558 121.316, 558 121.837 M 599.566 121.893 C 599.262 122.385, 600.136 123.068, 601.507 123.412 L 604 124.038 604 138.544 L 604 153.050 601.500 154 C 597.537 155.507, 598.524 156, 605.500 156 C 611.766 156, 614.139 154.793, 610 153.710 C 608.237 153.249, 608 152.346, 608 146.094 L 608 139 616.500 139 L 625 139 625 146.094 C 625 152.346, 624.763 153.249, 623 153.710 C 618.861 154.793, 621.234 156, 627.500 156 C 634.476 156, 635.463 155.507, 631.500 154 L 629 153.050 629 138.544 L 629 124.038 631.493 123.412 C 635.730 122.349, 633.185 121, 626.941 121 C 621.084 121, 619.097 122.261, 623 123.500 C 624.727 124.048, 625 125.013, 625 130.567 L 625 137 616.500 137 L 608 137 608 130.567 C 608 125.013, 608.273 124.048, 610 123.500 C 611.100 123.151, 612 122.446, 612 121.933 C 612 120.740, 600.302 120.703, 599.566 121.893 M 638.690 122.365 C 638.402 123.116, 640.604 126.971, 643.583 130.931 C 646.562 134.892, 648.997 138.440, 648.994 138.816 C 648.991 139.192, 646.516 142.597, 643.494 146.383 C 640.472 150.169, 638 153.881, 638 154.633 C 638 155.719, 640.674 156, 651 156 C 663.044 156, 664 155.862, 664 154.125 C 664 153.094, 664.281 150.844, 664.625 149.125 C 665.489 144.803, 663.454 145.094, 662 149.500 L 660.845 153 651.922 153 C 647.015 153, 643 152.703, 643 152.339 C 643 151.975, 645.493 148.365, 648.541 144.316 L 654.082 136.954 649.541 131.053 C 647.043 127.807, 645 124.893, 645 124.576 C 645 124.259, 648.089 124, 651.864 124 L 658.729 124 660.267 127.750 L 661.806 131.500 661.903 126.250 L 662 121 650.607 121 C 641.902 121, 639.090 121.322, 638.690 122.365 M 703.570 121.886 C 703.269 122.374, 703.855 122.990, 704.873 123.256 C 705.953 123.539, 708.862 127.696, 711.862 133.244 C 716.151 141.177, 717 143.599, 717 147.899 C 717 152.563, 716.740 153.162, 714.250 154.237 L 711.500 155.425 715.250 155.773 C 717.313 155.964, 720.688 155.964, 722.750 155.773 L 726.500 155.425 723.750 154.237 C 721.158 153.118, 721 152.680, 721 146.613 C 721 140.927, 721.466 139.367, 724.994 133.248 C 727.191 129.438, 729.891 125.504, 730.994 124.506 C 734.114 121.682, 733.435 121, 727.500 121 C 724.475 121, 722 121.450, 722 122 C 722 122.550, 722.337 123.007, 722.750 123.015 C 723.163 123.024, 724.164 123.451, 724.976 123.964 C 726.220 124.751, 725.907 125.921, 722.976 131.440 C 721.064 135.039, 719.275 137.979, 719 137.975 C 718.150 137.960, 711 124.160, 711 122.534 C 711 121.453, 709.985 121, 707.559 121 C 705.666 121, 703.872 121.399, 703.570 121.886 M 179 123.300 C 179 124.904, 181.005 127, 182.539 127 C 183.166 127, 184.192 125.875, 184.818 124.500 C 185.914 122.094, 185.826 122, 182.479 122 C 180.291 122, 179 122.482, 179 123.300 M 411.400 126.400 C 408.122 129.678, 408 130.077, 408 137.499 C 408 149.643, 411.094 154.273, 419.210 154.273 C 426.026 154.273, 430 148.654, 430 139.018 C 430 128.370, 426.204 123, 418.677 123 C 415.601 123, 414.098 123.702, 411.400 126.400 M 488.194 125.819 C 483.238 130.449, 482.621 142.558, 486.977 149.721 C 490.801 156.009, 500.207 155.830, 504.526 149.386 C 506.896 145.850, 507.232 134.235, 505.109 129.203 C 502.359 122.684, 493.457 120.902, 488.194 125.819 M 679.217 124.561 C 675.555 127.126, 674 131.344, 674.004 138.700 C 674.008 146.841, 676.295 151.389, 681.469 153.552 C 684.287 154.729, 685.553 154.763, 688.609 153.741 C 693.741 152.026, 696.236 147.030, 696.188 138.569 C 696.129 128.486, 692.187 123, 685 123 C 683.045 123, 680.442 123.702, 679.217 124.561 M 55.365 126.417 L 52.500 128.937 55.183 128.968 C 57.036 128.990, 58.069 128.359, 58.524 126.925 C 59.520 123.786, 58.537 123.628, 55.365 126.417 M 199.289 138.250 C 202.338 145.827, 205.440 152, 206.198 152 C 207.201 152, 206.702 149.608, 204.527 144 C 203.780 142.075, 202.921 139.713, 202.616 138.750 C 202.312 137.787, 201.326 137, 200.424 137 C 199.512 137, 199.009 137.554, 199.289 138.250 M 62.741 139.592 C 61.827 140.507, 63.283 145.072, 64.375 144.713 C 66.090 144.149, 66.300 140.329, 64.651 139.696 C 63.850 139.389, 62.991 139.342, 62.741 139.592 M 56.133 142.561 C 57.030 143.458, 58.604 144.019, 59.632 143.808 C 61.017 143.523, 60.595 143.101, 58.001 142.177 C 54.766 141.024, 54.625 141.053, 56.133 142.561 M 190.057 142.893 C 189.257 144.388, 189.477 145.073, 191.106 146.154 C 192.255 146.917, 194.246 150.608, 195.606 154.498 C 196.948 158.335, 198.598 161.986, 199.273 162.613 C 201.055 164.267, 205.774 165.175, 206.498 164.004 C 207.434 162.489, 209 162.800, 209 164.500 C 209 166.472, 210.622 166.428, 211.386 164.437 C 212.006 162.821, 209.783 157.602, 208.007 156.504 C 207.453 156.162, 207 156.551, 207 157.370 C 207 159.230, 204.128 162.197, 203.001 161.501 C 202.212 161.013, 195.024 146.551, 193.681 142.750 C 192.873 140.463, 191.325 140.524, 190.057 142.893 M 88.200 146.511 C 79.688 152.706, 79.964 155.356, 88.500 149.389 C 92.075 146.890, 95 144.205, 95 143.423 C 95 142.640, 94.865 142, 94.700 142 C 94.535 142, 91.610 144.030, 88.200 146.511 M 175.558 142.775 C 175.251 143.082, 175 143.708, 175 144.167 C 175 145.282, 178.736 145.237, 179.430 144.114 C 180.037 143.131, 176.444 141.889, 175.558 142.775 M 182.768 145.065 C 181.412 146.552, 181.249 147.524, 182.018 149.547 C 182.558 150.968, 183 154.324, 183 157.006 C 183 159.688, 183.450 162.160, 184 162.500 C 184.641 162.896, 185 159.510, 185 153.059 C 185 147.527, 184.887 143.037, 184.750 143.083 C 184.613 143.129, 183.721 144.021, 182.768 145.065 M 125.949 151.077 C 122.402 154.970, 118.014 159.727, 116.198 161.649 C 109.850 168.367, 109.914 168.714, 119.909 181.818 C 124.810 188.243, 129.957 194.564, 131.347 195.865 C 133.722 198.088, 134.169 198.159, 138.799 197.048 C 142.492 196.162, 145.730 196.142, 151.745 196.965 C 161.055 198.240, 164.261 197.330, 166.635 192.739 C 168.494 189.144, 169.975 151, 168.255 151 C 165.509 151, 143.933 146.914, 139.500 145.555 C 136.750 144.712, 134.027 144.017, 133.449 144.011 C 132.872 144.005, 129.497 147.185, 125.949 151.077 M 57.202 148.105 C 57.404 148.713, 59.246 149.786, 61.294 150.490 C 66.122 152.150, 67.729 153.548, 70.059 158.115 C 72.347 162.600, 74 163.863, 74 161.127 C 74 158.279, 67.139 150.543, 62.914 148.626 C 58.739 146.733, 56.682 146.545, 57.202 148.105 M 101.400 150.831 C 97.788 153.453, 94.111 158.448, 95.082 159.413 C 95.684 160.012, 105.680 157.653, 106.650 156.683 C 107.099 156.234, 107.989 154.097, 108.628 151.934 C 109.736 148.179, 109.687 148, 107.545 148 C 106.310 148, 103.545 149.274, 101.400 150.831 M 36.975 151.250 C 33.321 153.726, 31.311 157.041, 34.634 155.111 C 37.873 153.229, 42.547 149.010, 41.398 149.005 C 40.792 149.002, 38.801 150.012, 36.975 151.250 M 41.213 157.139 C 38.140 159.106, 35 163.560, 35 165.950 C 35 166.574, 37.596 167, 41.393 167 C 48.454 167, 48.423 167.027, 49.533 159.628 C 50.221 155.037, 50.204 155, 47.364 155.017 C 45.789 155.026, 43.021 155.981, 41.213 157.139 M 55.604 158.152 C 54.847 159.993, 53.919 162.946, 53.543 164.713 C 52.919 167.636, 53.112 167.991, 55.679 168.650 C 57.230 169.049, 60.525 169.403, 63 169.437 C 67.236 169.496, 67.480 169.353, 67.167 167 C 66.644 163.070, 63.721 158.741, 60.205 156.687 L 56.980 154.804 55.604 158.152 M 21 156.800 C 21 158.180, 23.327 160, 25.093 160 C 26.835 160, 28.328 157.661, 27.264 156.598 C 26.370 155.703, 21 155.877, 21 156.800 M 86 163.021 C 86 164.133, 84.775 166.893, 83.279 169.155 L 80.557 173.267 83.991 176.134 C 85.879 177.710, 87.779 179, 88.212 179 C 89.861 179, 88.898 176.979, 86.500 175.408 C 83.508 173.447, 83.367 171.366, 86 168 C 88.066 165.358, 88.689 161, 87 161 C 86.450 161, 86 161.910, 86 163.021 M 188.546 165.500 C 188.154 167.150, 187.660 169.063, 187.448 169.750 C 187.236 170.438, 187.738 171, 188.563 171 C 190.612 171, 191.157 169.079, 190.125 165.500 L 189.259 162.500 188.546 165.500 M 92.311 169.631 C 91.533 171.659, 95.766 179.741, 98.596 181.629 C 99.749 182.399, 101.224 184.197, 101.875 185.626 C 103.574 189.354, 101.712 191.356, 97.314 190.531 C 95.491 190.189, 94 190.324, 94 190.830 C 94 192.080, 99.600 193.252, 104.574 193.042 C 107.220 192.931, 109.103 193.419, 109.946 194.435 C 111.219 195.969, 114 196.611, 114 195.372 C 114 195.027, 111.812 191.765, 109.137 188.122 C 106.462 184.480, 102.999 179.475, 101.441 177 C 98.067 171.638, 94.976 168, 93.794 168 C 93.323 168, 92.656 168.734, 92.311 169.631 M 106.559 170.120 C 110.720 176.978, 116.369 184.926, 118.454 186.855 C 121.400 189.580, 121.584 190.697, 119.472 193.031 C 118.062 194.589, 118.309 194.771, 122.635 195.363 C 125.215 195.717, 127.510 195.823, 127.734 195.600 C 128.269 195.064, 108.112 169.612, 106.763 169.120 C 106.122 168.886, 106.043 169.271, 106.559 170.120 M 23.018 171.968 C 21.774 172.754, 21.974 173.364, 24.258 175.748 C 25.756 177.311, 27.701 180.701, 28.580 183.282 C 30.804 189.808, 34.860 193.012, 40.827 192.956 L 45.500 192.912 41.867 190.992 C 37.290 188.574, 30.826 181.290, 28.089 175.466 C 25.883 170.773, 25.416 170.451, 23.018 171.968 M 38.250 171.706 C 34.643 172.173, 34.545 172.398, 36.065 176.756 C 37.070 179.639, 38.900 180.855, 44.682 182.479 C 46.638 183.028, 46.935 182.614, 47.557 178.471 C 47.938 175.929, 47.856 173.465, 47.375 172.996 C 46.138 171.789, 42.063 171.213, 38.250 171.706 M 53.630 173.789 C 53.275 174.364, 52.702 176.896, 52.356 179.417 C 51.776 183.649, 51.895 184, 53.904 184 C 58.559 184, 69.648 176.136, 67.160 174.599 C 65.190 173.382, 54.286 172.729, 53.630 173.789 M 295.750 174.662 C 296.588 175, 297 177.548, 297 182.395 C 297 191.320, 298.856 194, 305.039 194 C 311.311 194, 313 191.577, 313 182.583 C 313 177.586, 313.408 175.002, 314.250 174.662 C 314.938 174.385, 314.207 174.122, 312.628 174.079 C 310.171 174.011, 309.937 174.219, 311.013 175.516 C 312.573 177.395, 311.811 189.318, 309.992 191.510 C 308.285 193.567, 303.653 193.379, 301.655 191.171 C 299.584 188.883, 299.255 175.467, 301.250 174.662 C 301.938 174.385, 300.700 174.158, 298.500 174.158 C 296.300 174.158, 295.063 174.385, 295.750 174.662 M 318.800 175.200 C 320.477 176.877, 320.433 192.659, 318.750 193.338 C 318.063 193.615, 318.850 193.871, 320.500 193.906 C 322.436 193.947, 323.040 193.678, 322.203 193.147 C 321.284 192.563, 320.992 190.166, 321.203 184.912 L 321.500 177.500 327.425 185.750 C 330.684 190.287, 333.721 194, 334.175 194 C 334.629 194, 335 189.762, 335 184.583 C 335 177.986, 335.374 175.016, 336.250 174.662 C 336.938 174.385, 335.925 174.129, 334 174.094 C 331.794 174.054, 330.981 174.336, 331.802 174.856 C 332.705 175.429, 333.011 177.635, 332.802 182.062 L 332.500 188.443 327.573 181.221 C 323.649 175.469, 322.134 174, 320.123 174 C 318.161 174, 317.867 174.267, 318.800 175.200 M 340.750 174.662 C 341.618 175.012, 342 177.869, 342 184 C 342 190.131, 341.618 192.988, 340.750 193.338 C 340.063 193.615, 341.300 193.842, 343.500 193.842 C 345.700 193.842, 346.938 193.615, 346.250 193.338 C 344.567 192.659, 344.523 176.877, 346.200 175.200 C 347.133 174.267, 346.522 174.018, 343.450 174.079 C 341.277 174.122, 340.063 174.385, 340.750 174.662 M 351.392 176.250 C 352.183 177.488, 354.281 181.988, 356.054 186.250 C 357.827 190.512, 359.561 194, 359.908 194 C 360.254 194, 361.833 190.512, 363.417 186.250 C 365.001 181.988, 366.915 177.488, 367.671 176.250 C 368.966 174.131, 368.888 174, 366.323 174 C 364.374 174, 363.907 174.307, 364.679 175.079 C 365.452 175.852, 365.017 178.029, 363.149 182.737 L 360.539 189.315 357.793 183.408 C 356.283 180.158, 355.220 176.713, 355.430 175.750 C 355.727 174.395, 355.152 174, 352.883 174 C 350.086 174, 350.019 174.101, 351.392 176.250 M 372.750 175.149 C 373.547 175.947, 374 179.377, 374 184.617 C 374 190.254, 373.608 192.992, 372.750 193.338 C 372.063 193.615, 374.762 193.878, 378.750 193.921 C 385.047 193.990, 385.990 193.770, 385.921 192.250 C 385.874 191.205, 385.639 191.003, 385.338 191.750 C 385.055 192.451, 383.114 193, 380.917 193 L 377 193 377 188.560 C 377 184.167, 377.039 184.117, 380.750 183.728 L 384.500 183.336 380.750 183.168 C 377.070 183.003, 377 182.926, 377 179 C 377 175.106, 377.092 175, 380.450 175 C 382.656 175, 384.293 175.631, 384.987 176.750 C 385.980 178.350, 386.048 178.328, 385.776 176.500 C 385.517 174.754, 384.593 174.462, 378.490 174.199 C 372.896 173.958, 371.750 174.148, 372.750 175.149 M 390.800 175.200 C 392.477 176.877, 392.433 192.659, 390.750 193.338 C 390.063 193.615, 391.300 193.842, 393.500 193.842 C 395.700 193.842, 396.938 193.615, 396.250 193.338 C 394.526 192.642, 394.587 185, 396.316 185 C 397.040 185, 398.611 186.742, 399.807 188.870 C 402.011 192.792, 405.005 195.969, 404.993 194.372 C 404.990 193.893, 404.093 192.150, 403 190.500 C 400.602 186.879, 400.507 185.350, 402.554 183.303 C 404.806 181.051, 403.979 176.788, 401 175.288 C 397.634 173.593, 389.120 173.520, 390.800 175.200 M 411.038 175.962 C 407.639 179.361, 408.636 182.263, 414.172 185.088 C 416.331 186.189, 418.351 187.751, 418.661 188.558 C 420.126 192.376, 412.187 194.867, 410.080 191.250 C 409.170 189.687, 409.058 189.741, 409.030 191.750 C 409.003 193.786, 409.473 194, 413.977 194 C 418.156 194, 419.211 193.607, 420.560 191.549 C 422.786 188.151, 421.771 185.951, 416.512 182.775 C 411.906 179.993, 411.069 178.331, 413.200 176.200 C 415.060 174.340, 417.731 174.777, 419.443 177.223 L 421 179.445 421 176.918 C 421 174.680, 420.547 174.364, 417.038 174.157 C 414.166 173.988, 412.516 174.484, 411.038 175.962 M 426.800 175.200 C 428.477 176.877, 428.433 192.659, 426.750 193.338 C 426.063 193.615, 427.300 193.842, 429.500 193.842 C 431.700 193.842, 432.938 193.615, 432.250 193.338 C 431.382 192.988, 431 190.131, 431 184 C 431 177.869, 431.382 175.012, 432.250 174.662 C 432.938 174.385, 431.723 174.122, 429.550 174.079 C 426.478 174.018, 425.867 174.267, 426.800 175.200 M 436.015 175.750 C 436.027 177.094, 436.227 177.190, 436.878 176.163 C 437.345 175.427, 438.800 174.977, 440.113 175.163 C 442.372 175.482, 442.516 175.929, 442.796 183.480 C 443.043 190.125, 442.802 191.672, 441.355 192.730 C 439.853 193.828, 440.212 194, 444 194 C 447.788 194, 448.147 193.828, 446.645 192.730 C 445.198 191.672, 444.957 190.125, 445.204 183.480 C 445.484 175.929, 445.628 175.482, 447.887 175.163 C 449.200 174.977, 450.655 175.427, 451.122 176.163 C 451.773 177.190, 451.973 177.094, 451.985 175.750 C 451.998 174.228, 450.958 174, 444 174 C 437.042 174, 436.002 174.228, 436.015 175.750 M 457.528 179.750 C 461.116 185.701, 462.203 192.348, 459.750 193.338 C 459.063 193.615, 460.300 193.842, 462.500 193.842 C 464.700 193.842, 465.938 193.615, 465.250 193.338 C 462.795 192.347, 463.872 185.595, 467.427 179.691 L 470.854 174 468.458 174 C 466.808 174, 466.231 174.439, 466.604 175.410 C 467.181 176.914, 464.453 183, 463.202 183 C 461.941 183, 458.734 176.239, 459.447 175.085 C 459.873 174.396, 459.012 174, 457.089 174 L 454.060 174 457.528 179.750 M 576.910 176.789 C 574.171 179.236, 573.545 180.526, 573.545 183.726 C 573.545 193.565, 582.960 198.130, 589.586 191.505 C 591.421 189.670, 592 188.014, 592 184.601 C 592 178.945, 589.013 175.173, 583.887 174.358 C 580.841 173.873, 579.747 174.255, 576.910 176.789 M 618.775 175.559 C 615.323 177.432, 614 179.910, 614 184.500 C 614 189.215, 615.352 191.614, 619.103 193.553 C 625.595 196.910, 632.500 192.160, 632.500 184.337 C 632.500 180.517, 632.006 179.395, 629.234 176.918 C 625.623 173.691, 622.875 173.334, 618.775 175.559 M 701.023 175.977 C 697.772 179.228, 698.470 181.754, 703.456 184.788 C 705.908 186.280, 708.165 188.120, 708.474 188.877 C 709.964 192.535, 702.120 194.753, 700.080 191.250 C 699.157 189.666, 699.058 189.701, 699.030 191.625 C 698.969 195.923, 708.615 195.457, 710.974 191.048 C 712.513 188.172, 710.833 185.465, 705.967 182.983 C 701.919 180.918, 700.923 178.477, 703.200 176.200 C 704.929 174.471, 706.717 174.717, 709 177 L 711 179 710.999 176.750 C 710.997 174.840, 710.396 174.459, 707.021 174.227 C 704.110 174.028, 702.503 174.497, 701.023 175.977 M 175.070 178.750 C 175.127 181.758, 175.311 182.104, 176 180.500 C 177.194 177.721, 177.194 175, 176 175 C 175.450 175, 175.032 176.688, 175.070 178.750 M 395 179.500 C 395 183.167, 395.333 184, 396.800 184 C 399.204 184, 401 182.076, 401 179.500 C 401 176.924, 399.204 175, 396.800 175 C 395.333 175, 395 175.833, 395 179.500 M 522.819 184.502 L 522.500 194.004 525.500 193.923 C 527.150 193.879, 527.938 193.615, 527.250 193.338 C 526.563 193.060, 526 191.346, 526 189.528 C 526 186.548, 526.341 186.159, 529.468 185.572 C 533.470 184.821, 536 182.663, 536 180 C 536 177.764, 533.433 175, 531.357 175 C 530.054 175, 530.063 175.206, 531.429 176.571 C 533.555 178.698, 533.406 181.323, 531.037 183.466 C 527.785 186.410, 525.739 184.745, 526.157 179.493 C 526.451 175.802, 526.213 175, 524.826 175 C 523.382 175, 523.091 176.377, 522.819 184.502 M 540.828 183.641 C 541.069 190.025, 540.808 192.506, 539.828 193.128 C 539.038 193.629, 541.436 193.976, 545.750 193.985 C 552.024 193.998, 552.989 193.764, 552.921 192.250 C 552.874 191.205, 552.639 191.003, 552.338 191.750 C 552.055 192.451, 550.114 193, 547.917 193 C 544.014 193, 544 192.986, 544 189 C 544 185.095, 544.083 185, 547.500 185 C 549.425 185, 551 184.501, 551 183.891 C 551 183.212, 549.642 182.940, 547.500 183.190 C 544.042 183.593, 544 183.552, 544 179.799 C 544 176.168, 544.146 176, 547.300 176 C 549.115 176, 551.140 176.540, 551.800 177.200 C 552.733 178.133, 553 178.022, 553 176.700 C 553 175.282, 551.965 175, 546.750 174.998 L 540.500 174.995 540.828 183.641 M 557.819 184.502 L 557.500 194.004 563.750 194.002 C 569.065 194, 569.988 193.738, 569.921 192.250 C 569.874 191.205, 569.639 191.003, 569.338 191.750 C 569.053 192.457, 567.100 193, 564.846 193 L 560.858 193 561.179 183.998 C 561.461 176.103, 561.293 174.996, 559.819 174.998 C 558.384 175, 558.090 176.394, 557.819 184.502 M 579.636 176.277 C 576.036 178.909, 575.807 188.001, 579.240 191.982 C 581.540 194.649, 583.563 194.528, 586.545 191.545 C 592.896 185.195, 586.567 171.208, 579.636 176.277 M 597.500 184.500 L 597.500 194 600.500 193.921 C 602.150 193.878, 602.938 193.615, 602.250 193.338 C 601.563 193.060, 601 191.346, 601 189.528 C 601 186.547, 601.341 186.159, 604.471 185.571 C 607.797 184.947, 611 181.895, 611 179.349 C 611 177.424, 608.049 175, 605.706 175 L 603.555 175 605.777 176.557 C 608.728 178.623, 608.591 181.567, 605.449 183.626 C 602.060 185.846, 600.660 184.363, 601.163 179.087 C 601.503 175.521, 601.295 175, 599.526 175 C 597.633 175, 597.500 175.625, 597.500 184.500 M 619.073 177.635 C 616.048 181.480, 616.236 188.327, 619.455 191.545 C 622.420 194.511, 623.025 194.555, 626.234 192.031 C 632.019 187.480, 629.546 175.159, 622.823 175.032 C 621.900 175.014, 620.212 176.186, 619.073 177.635 M 637.828 183.641 C 638.069 190.025, 637.808 192.506, 636.828 193.128 C 635.903 193.714, 636.259 193.974, 638 193.985 C 640.369 194, 640.482 193.748, 640.166 189.184 C 639.982 186.535, 639.982 183.047, 640.166 181.434 C 640.484 178.639, 640.758 178.868, 645.934 186.250 C 648.922 190.512, 651.704 194, 652.115 194 C 652.526 194, 653.006 189.724, 653.181 184.498 C 653.379 178.617, 653.119 174.996, 652.500 174.996 C 651.901 174.996, 651.635 177.606, 651.835 181.498 C 652.020 185.074, 651.795 187.993, 651.335 187.985 C 650.876 187.976, 648.475 185.058, 646 181.500 C 643.030 177.230, 640.820 175.025, 639.500 175.013 C 637.628 174.996, 637.521 175.548, 637.828 183.641 M 659.828 183.641 C 660.069 190.025, 659.808 192.506, 658.828 193.128 C 657.903 193.714, 658.259 193.974, 660 193.985 C 662.369 194, 662.482 193.748, 662.166 189.184 C 661.982 186.535, 661.982 183.047, 662.166 181.434 C 662.484 178.639, 662.758 178.868, 667.934 186.250 C 670.922 190.512, 673.704 194, 674.115 194 C 674.526 194, 675.006 189.724, 675.181 184.498 C 675.379 178.617, 675.119 174.996, 674.500 174.996 C 673.901 174.996, 673.635 177.606, 673.835 181.498 C 674.020 185.074, 673.795 187.993, 673.335 187.985 C 672.876 187.976, 670.475 185.058, 668 181.500 C 665.030 177.230, 662.820 175.025, 661.500 175.013 C 659.628 174.996, 659.521 175.548, 659.828 183.641 M 681.819 184.502 L 681.500 194.004 688.250 194.002 C 694.041 194, 694.989 193.751, 694.921 192.250 C 694.874 191.205, 694.639 191.003, 694.338 191.750 C 694.043 192.481, 692.027 193, 689.480 193 L 685.126 193 685.150 184.500 L 685.174 176 689.003 176 C 691.132 176, 693.057 176.555, 693.338 177.250 C 693.639 177.997, 693.874 177.795, 693.921 176.750 C 693.988 175.271, 693.081 175, 688.069 175 L 682.137 175 681.819 184.502 M 716.828 183.641 C 717.069 190.025, 716.808 192.506, 715.828 193.128 C 715.042 193.626, 717.665 193.976, 722.250 193.985 C 728.883 193.998, 730 193.755, 730 192.300 C 730 190.978, 729.733 190.867, 728.800 191.800 C 728.140 192.460, 725.918 193, 723.863 193 L 720.126 193 720.150 184.500 L 720.174 176 724.003 176 C 726.132 176, 728.057 176.555, 728.338 177.250 C 728.639 177.997, 728.874 177.795, 728.921 176.750 C 728.988 175.262, 728.065 175, 722.750 174.998 L 716.500 174.995 716.828 183.641 M 191.198 178.464 C 190.046 180.992, 191.060 182.699, 193 181.500 C 194.208 180.753, 194.347 176, 193.161 176 C 192.699 176, 191.816 177.109, 191.198 178.464 M 503.168 177.625 C 503.076 178.794, 502.745 181.269, 502.433 183.125 C 501.970 185.883, 502.073 186.177, 502.993 184.733 C 503.612 183.761, 503.943 181.286, 503.727 179.233 C 503.512 177.180, 503.261 176.456, 503.168 177.625 M 486.730 179.500 C 486.409 180.600, 485.909 183.525, 485.620 186 C 485.107 190.382, 485.130 190.356, 486.520 185 C 487.845 179.892, 488.030 175.044, 486.730 179.500 M 497.601 180.107 C 496.316 184.125, 495.994 189, 497.014 189 C 497.621 189, 497.883 188.620, 497.597 188.156 C 497.310 187.692, 497.541 185.625, 498.110 183.562 C 499.067 180.098, 498.606 176.967, 497.601 180.107 M 506.986 182.750 C 506.979 183.713, 506.701 185.512, 506.370 186.750 C 506.038 187.988, 506.157 188.999, 506.633 188.999 C 507.110 188.998, 507.623 187.198, 507.774 184.999 C 507.925 182.799, 507.812 181, 507.524 181 C 507.236 181, 506.994 181.787, 506.986 182.750 M 62 184 C 60.075 185.054, 57.318 185.935, 55.872 185.958 C 52.952 186.005, 50.239 188.411, 51.928 189.456 C 53.766 190.591, 61.002 187.971, 64.289 184.980 C 67.979 181.623, 67.060 181.230, 62 184 M 511.667 182.667 C 510.751 183.583, 510.822 189, 511.750 189 C 512.163 189, 512.500 187.425, 512.500 185.500 C 512.500 183.575, 512.462 182, 512.417 182 C 512.371 182, 512.033 182.300, 511.667 182.667 M 687 184 C 687 184.550, 688.125 185, 689.500 185 C 690.875 185, 692 184.550, 692 184 C 692 183.450, 690.875 183, 689.500 183 C 688.125 183, 687 183.450, 687 184 M 722 184 C 722 184.550, 723.125 185, 724.500 185 C 725.875 185, 727 184.550, 727 184 C 727 183.450, 725.875 183, 724.500 183 C 723.125 183, 722 183.450, 722 184 M 40.500 186 C 40.840 186.550, 42.554 186.993, 44.309 186.985 C 46.737 186.973, 47.141 186.738, 46 186 C 44.017 184.718, 39.708 184.718, 40.500 186 M 79.500 189 C 78.657 190.365, 79.797 192, 81.592 192 C 82.403 192, 85.346 193.155, 88.133 194.567 C 90.919 195.979, 93.376 196.957, 93.593 196.740 C 93.810 196.523, 92.380 194.468, 90.416 192.173 C 87.538 188.811, 86.191 188, 83.481 188 C 81.631 188, 79.840 188.450, 79.500 189 M 53 193.827 C 53.825 194.350, 58.325 195.072, 63 195.430 C 68.850 195.879, 71.002 195.769, 69.903 195.077 C 69.025 194.524, 64.525 193.803, 59.903 193.474 C 54.423 193.083, 52.022 193.206, 53 193.827 M 188 196 C 188 198.762, 188.278 199, 191.500 199 C 195.610 199, 196.198 196.953, 192.777 194.557 C 189.413 192.200, 188 192.627, 188 196 M 173.645 195.498 C 170.282 198.861, 172.613 200.828, 179.250 200.228 C 184.528 199.751, 184.847 199.268, 182.115 195.893 C 180.460 193.850, 180.022 193.737, 178.538 194.968 C 177.198 196.081, 176.686 196.110, 176.069 195.112 C 175.466 194.136, 174.920 194.223, 173.645 195.498 M 202 194.566 C 202 196.408, 204.359 199, 206.035 199 C 207.464 199, 208 198.318, 208 196.500 C 208 194.389, 207.533 194, 205 194 C 203.350 194, 202 194.255, 202 194.566 M 51 197.990 L 44.500 198.655 51.603 198.827 C 55.510 198.922, 61.585 199.283, 65.103 199.629 C 69.397 200.051, 71.171 199.926, 70.500 199.250 C 69.117 197.857, 58.816 197.192, 51 197.990 M 89.500 202 C 89.840 202.550, 93.129 203.024, 96.809 203.054 C 100.489 203.084, 107.100 203.524, 111.500 204.032 C 115.900 204.540, 125.575 205.421, 133 205.991 C 140.425 206.560, 150.018 207.589, 154.318 208.277 L 162.136 209.529 155.968 213.514 C 152.349 215.853, 150.430 217.628, 151.325 217.809 C 153.440 218.237, 160.567 214.456, 162.296 211.988 C 163.659 210.042, 164.155 209.998, 173.112 211.035 C 185.130 212.425, 202.181 211.973, 202.752 210.250 C 203.064 209.309, 200.847 209, 193.795 209 C 184.342 209, 161.130 207.249, 134.797 204.550 C 119.577 202.991, 95.157 201, 91.241 201 C 89.923 201, 89.155 201.441, 89.500 202 M 158.618 202.018 C 159.198 202.598, 161.434 203.311, 163.586 203.602 C 168.363 204.247, 166.247 202.606, 161.031 201.619 C 158.598 201.158, 157.877 201.277, 158.618 202.018 M 44.965 204.542 C 44.178 205.490, 44.042 206.442, 44.612 207.012 C 45.645 208.045, 76 207.100, 76 206.035 C 76 204.800, 64.275 203.408, 61.544 204.319 C 59.879 204.874, 57.235 204.793, 54.497 204.103 C 48.590 202.616, 46.483 202.713, 44.965 204.542 M 209.294 204.398 C 209.494 205.004, 212.030 205.638, 214.931 205.806 C 218.922 206.037, 220.098 205.794, 219.769 204.806 C 219.492 203.974, 217.448 203.463, 214.133 203.398 C 210.752 203.331, 209.059 203.681, 209.294 204.398 M 117.250 207.662 C 115.014 208.565, 115.883 211, 118.441 211 C 121.350 211, 122.819 209.133, 120.878 207.904 C 119.362 206.943, 119.079 206.924, 117.250 207.662 M 60 211.645 C 66.174 214.484, 65.187 214.408, 92.500 214.148 L 112.500 213.957 128 217.912 C 136.525 220.087, 149.269 223.696, 156.320 225.933 C 169.886 230.235, 180.878 232.230, 179.596 230.156 C 179.203 229.520, 177.930 229, 176.766 229 C 175.602 229, 168.991 227.247, 162.075 225.104 C 123.722 213.222, 99.445 209.186, 66 209.133 L 54.500 209.115 60 211.645 M 125.441 211.468 C 123.538 212.908, 123.542 212.937, 125.628 212.968 C 126.798 212.986, 128.315 212.325, 129 211.500 C 130.699 209.453, 128.136 209.430, 125.441 211.468 M 208.500 211 C 208.840 211.550, 210.640 212, 212.500 212 C 214.360 212, 216.160 211.550, 216.500 211 C 216.878 210.388, 215.324 210, 212.500 210 C 209.676 210, 208.122 210.388, 208.500 211 M 139.223 212.557 C 135.943 214.854, 136.521 216.299, 140 214.500 C 141.650 213.647, 143 212.510, 143 211.974 C 143 210.580, 141.775 210.769, 139.223 212.557 M 148.500 211.945 C 145.818 213.043, 142.647 216.664, 143.763 217.354 C 144.771 217.977, 152 213.138, 152 211.840 C 152 210.831, 151.162 210.856, 148.500 211.945 M 165 216 C 162.525 217.645, 159.938 218.993, 159.250 218.996 C 158.563 218.998, 158 219.450, 158 220 C 158 220.550, 158.183 221, 158.407 221 C 159.697 221, 171.878 215.007, 172.442 214.095 C 173.775 211.937, 169.444 213.046, 165 216 M 172.196 218.018 C 165.545 222.238, 164.513 225.066, 170.543 222.546 C 173.557 221.287, 182 215.234, 182 214.333 C 182 212.967, 177.478 214.667, 172.196 218.018 M 202.616 217.165 C 200.627 218.804, 199 220.922, 199 221.872 C 199 222.919, 197.694 224.070, 195.679 224.799 C 188.676 227.332, 186.695 225.588, 192.500 222 C 195.736 220, 197.264 217, 195.047 217 C 193.904 217, 184 225.987, 184 227.024 C 184 228.084, 189.853 229.321, 194.684 229.282 C 199.318 229.245, 201.276 227.988, 207.805 220.858 L 212.056 216.215 209.144 215.200 C 206.596 214.312, 205.779 214.558, 202.616 217.165 M 180.300 219.773 C 176.889 222.373, 174.077 224.838, 174.050 225.250 C 173.850 228.269, 185.717 221.267, 187.986 217.026 C 189.803 213.632, 187.079 214.605, 180.300 219.773 M 89.509 217.014 C 89.854 217.572, 91.850 218.903, 93.945 219.972 C 98.670 222.383, 99.765 224.776, 97.022 226.697 C 94.259 228.632, 94.246 235.007, 97 237.500 C 99.353 239.630, 99.593 238.835, 97.542 235.705 C 96.631 234.314, 96.410 232.955, 96.952 232.078 C 97.679 230.902, 98.600 231.007, 102.659 232.729 C 105.322 233.858, 108.962 235.092, 110.749 235.470 C 112.536 235.849, 114.634 237.067, 115.412 238.178 C 116.480 239.702, 117.247 239.961, 118.545 239.235 C 119.666 238.607, 121.247 238.644, 123.094 239.341 C 124.650 239.929, 126.196 240.137, 126.529 239.804 C 127.355 238.978, 122.716 230.004, 119.466 226.143 C 117.443 223.738, 116.013 223, 113.373 223 C 111.477 223, 105.846 221.425, 100.862 219.500 C 91.589 215.919, 88.400 215.221, 89.509 217.014 M 121.432 221.925 C 122.465 223.066, 124.055 224, 124.966 224 C 128.157 224, 130.867 227.836, 132.098 234.092 C 133.260 239.998, 137.235 246.591, 138.982 245.511 C 139.422 245.239, 138.102 241.076, 136.050 236.259 C 133.998 231.441, 132.045 226.736, 131.711 225.802 C 131.036 223.919, 127.075 221.660, 122.527 220.565 C 119.572 219.854, 119.565 219.862, 121.432 221.925 M 136 229.281 C 136 230.484, 142.773 242, 143.481 242 C 143.880 242, 140.233 232.304, 138.893 229.800 C 137.780 227.720, 136 227.401, 136 229.281 M 146.141 228.654 C 148.125 233.178, 152.193 239.870, 153.892 241.405 C 156.416 243.686, 156.486 243.357, 154.424 238.904 C 150.981 231.468, 149.044 228.485, 147.444 228.154 C 146.523 227.964, 145.937 228.189, 146.141 228.654 M 153.054 230 C 153.006 232.031, 158.793 242, 160.020 242 C 161.597 242, 161.168 240.347, 158.538 236.294 C 154.205 229.614, 153.093 228.338, 153.054 230 M 142.525 232.132 C 143.683 235.866, 147.852 243.790, 149.048 244.529 C 151.435 246.005, 151.068 243.786, 147.864 237.371 C 144.516 230.669, 141.001 227.220, 142.525 232.132 M 159.004 233.095 C 159.010 235.475, 162.881 241, 164.542 241 C 165.919 241, 165.890 240.621, 164.307 237.933 C 161.865 233.788, 158.999 231.173, 159.004 233.095 M 166.434 235.107 C 165.661 236.357, 168.803 240, 170.655 240 C 172.255 240, 172.322 239.471, 171.028 237.052 C 169.829 234.812, 167.282 233.734, 166.434 235.107 M 172 235.800 C 172 237.059, 174.265 239, 175.735 239 C 176.760 239, 176.822 238.536, 176 237 C 174.964 235.065, 172 234.176, 172 235.800 M 106.096 242.981 C 106.974 243.501, 109.674 244.168, 112.096 244.462 C 115.200 244.839, 115.762 244.751, 114 244.163 C 109.697 242.727, 104.309 241.921, 106.096 242.981 M 125.500 245.594 L 122.500 246.910 126.250 246.955 C 128.313 246.980, 130 246.577, 130 246.059 C 130 244.394, 128.572 244.247, 125.500 245.594" stroke="none" fill="#0b4271" fill-rule="evenodd"/></svg>