<?xml version="1.0" encoding="utf-8"?>
<!-- Generator: Adobe Illustrator 19.0.1, SVG Export Plug-In . SVG Version: 6.00 Build 0)  -->
<svg version="1.1" id="Layer_1" xmlns="http://www.w3.org/2000/svg" xmlns:xlink="http://www.w3.org/1999/xlink" x="0px" y="0px"
	 viewBox="592.7 141.9 368 368" style="enable-background:new 592.7 141.9 368 368;" xml:space="preserve">
<style type="text/css">
	.st0{fill:#3544B1;}
</style>
<title>blueArtboard 1</title>
<path class="st0" d="M602.2,325.7c0.1-96.4,78.4-174.4,174.7-174.3s174.4,78.4,174.3,174.7c-0.1,96.4-78.2,174.3-174.5,174.3
	C680.2,500.3,602.1,422.1,602.2,325.7L602.2,325.7z M773.1,385.4c-13.5,0.4-27.1-0.8-40.3-3.6c-9.8-2-18-8.6-22-17.7
	c-3.9-9.1-5.9-23.1-5.7-42.1c0.1-9.9,0.7-19.8,1.9-29.7c1.1-9.6,2.3-17.5,3.4-23.7l1.2-6.2c0-0.2,0-0.4,0-0.5c0-1.7-1.2-3.2-2.9-3.5
	l-22.5-3.5h-0.5c-1.6,0-3.1,1.1-3.4,2.7c-0.4,1.4-0.6,2.5-1.3,5.9c-1.3,6.6-2.5,13.1-3.8,22.5c-1.4,10.2-2.2,20.5-2.5,30.9
	c-0.5,7.2-0.5,14.4,0,21.6c0.5,19.1,3.8,34.3,9.8,45.8c6,11.4,16.2,19.6,30.6,24.6c14.4,5,34.4,7.5,60.1,7.4h3.2
	c25.7,0.1,45.8-2.4,60.1-7.4c14.4-5,24.6-13.2,30.6-24.6c6-11.4,9.3-26.7,9.8-45.8c0.5-7.2,0.5-14.4,0-21.6
	c-0.3-10.3-1.2-20.6-2.5-30.9c-1.3-9.3-2.5-15.7-3.8-22.5c-0.7-3.4-0.9-4.5-1.3-5.9c-0.4-1.6-1.8-2.7-3.4-2.7h-0.6l-22.5,3.5
	c-1.7,0.3-3,1.8-3,3.5c0,0.2,0,0.4,0,0.5l1.2,6.2c1.1,6.2,2.3,14.1,3.4,23.7c1.2,9.8,1.8,19.7,1.8,29.7c0.2,18.9-1.7,33-5.7,42.1
	c-4,9.1-12.2,15.7-21.9,17.8c-13.2,2.8-26.8,4-40.3,3.6L773.1,385.4z"/>
</svg>
